<?xml version="1.0" encoding="UTF-8"?>
<svg width="256" height="256" version="1.1" viewBox="0 0 256 256" xmlns="http://www.w3.org/2000/svg">
  <g fill="#ffa600" >
    <path d="m207.69 40-63.688 184h54.625l-8-20.281 11.266-27.719h22.109v-136z"/>
    <path d="m57.854 224 13.772-40h88.375v40z"/>
    <path d="m91 128 13.875-40h99.125v40z"/>
    <path d="m208 224-8-20.281 8-19.719h24l8 40z"/>
  </g>
  <g fill="#005aa0">
    <path d="m57.375 40 8 20.281-11.266 27.719h-22.109v136h16.312l63.688-184z"/>
    <path d="m198.15 40-13.772 40h-88.375v-40z"/>
    <path d="m165 136-13.875 40h-99.125v-40z"/>
    <path d="m48 40 8 20.281-8 19.719h-24l-8-40z"/>
  </g>
</svg>
