<?xml version="1.0" encoding="UTF-8"?>
<svg id="svg5033" width="706px" height="588px" style="height:588px;width:706px" contentStyleType="text/css" preserveAspectRatio="none" version="1.1" viewBox="0 0 706 588" xmlns="http://www.w3.org/2000/svg" zoomAndPan="magnify">
  <rect id="rect3985" x="6" y="28.297" width="693.03" height="552.7" rx="2.0146" ry="2.0146" fill="#171717" stop-color="#000000" stroke-linejoin="round" stroke-width="3"/>
  <path id="rect3985-3" d="m8.3409 6h48.159l2.5 2.5 7 19.797-60-2e-6v-20.341z" fill="#171717" stop-color="#000000" stroke-linejoin="round" stroke-width="3"/>
  <path id="path4822" d="m8.5 6h48a3.75 3.75 0 0 1 2.5 2.5l7 19.797h630.5a2.5 2.5 0 0 1 2.5 2.5v547.7a2.5 2.5 0 0 1-2.5 2.5h-688a2.5 2.5 0 0 1-2.5-2.5v-570a2.5 2.5 0 0 1 2.5-2.5" fill="none" stroke="#fff" stroke-width="1.5"/>
  <g>
    <line id="line4824" x1="6" x2="66" y1="28.297" y2="28.297" fill="#fff" stroke="#fff" stroke-width="1.5"/>
    <text id="text4826" x="10" y="20.9951" fill="#ffffff" font-family="sans-serif" font-size="14px" font-weight="bold" textLength="47">finam</text>
    <rect id="finam.Adapter" x="115.5" y="468" width="143" height="96.891" rx="2.5" ry="2.5" fill="#262626" stroke="#e5e5e5" stroke-width=".5" codeLine="1"/>
  </g>
  <circle id="ellipse4830" cx="153.9" cy="484" r="11" fill="#add1b2" stroke="#e5e5e5"/>
  <g>
    <path id="path4832" d="m156.24 479.67c-0.9375-0.4375-1.5313-0.5781-2.4063-0.5781-2.625 0-4.625 2.0781-4.625 4.7968v1.125c0 2.5782 2.1094 4.4688 5 4.4688 1.2188 0 2.375-0.2969 3.125-0.8438 0.5781-0.4062 0.9063-0.8593 0.9063-1.25 0-0.4531-0.3907-0.8437-0.8594-0.8437-0.2188 0-0.4219 0.0781-0.6094 0.2656-0.4531 0.4844-0.4531 0.4844-0.6406 0.5781-0.4219 0.2657-1.1094 0.3907-1.875 0.3907-2.0469 0-3.3438-1.0938-3.3438-2.7969v-1.0938c0-1.7812 1.25-3.0937 2.9844-3.0937 0.5781 0 1.1875 0.1562 1.6563 0.4062 0.4843 0.2813 0.6562 0.5 0.75 0.9063 0.0625 0.4062 0.0937 0.5312 0.2343 0.6562 0.1407 0.1407 0.375 0.25 0.5938 0.25 0.2656 0 0.5312-0.1406 0.7031-0.3593 0.1094-0.1563 0.1406-0.3438 0.1406-0.7657v-1.4218c0-0.4375-0.0156-0.5625-0.1093-0.7188-0.1563-0.2656-0.4375-0.4062-0.7344-0.4062s-0.5 0.0937-0.7188 0.4062z" fill="#171717"/>
    <text id="text4834" x="173.10001" y="488.84671" fill="#ffffff" font-family="sans-serif" font-size="14px" textLength="59">Adapter</text>
    <line id="line4836" x1="116.5" x2="257.5" y1="500" y2="500" fill="#fff" stroke="#fcfcfc" stroke-width=".5"/>
    <line id="line4838" x1="116.5" x2="257.5" y1="508" y2="508" fill="#fff" stroke="#fcfcfc" stroke-width=".5"/>
  </g>
  <g fill="#ffffff" font-family="sans-serif" font-size="14px">
    <text id="text4840" x="121.5" y="524.99512" textLength="81">_get_data()</text>
    <text id="text4842" x="121.5" y="541.29199" textLength="77">_get_info()</text>
    <text id="text4844" x="121.5" y="557.58893" textLength="131">_source_updated()</text>
  </g>
  <rect id="finam.IAdapter" x="140.5" y="319.5" width="93" height="48" rx="2.5" ry="2.5" fill="#262626" stroke="#e5e5e5" stroke-width=".5" codeLine="6"/>
  <circle id="ellipse4848" cx="155.5" cy="335.5" r="11" fill="#a9dcdf" stroke="#e5e5e5"/>
  <g>
    <path id="path4850" d="m157.58 337.31 0.3907 0.9844h-0.3907c-0.4531 0-0.5625 0.0156-0.7187 0.125-0.25 0.1562-0.4063 0.4375-0.4063 0.7344 0 0.2656 0.1407 0.5156 0.3594 0.6718 0.1406 0.125 0.3438 0.1719 0.7656 0.1719h2.3594c0.3594 0 0.5781-0.0312 0.7188-0.125 0.25-0.1406 0.4062-0.4375 0.4062-0.7187 0-0.2813-0.1406-0.5313-0.3594-0.6875-0.1718-0.1407-0.3281-0.1719-0.7968-0.1719l-3.3907-8.2031h-3.6718c-0.4532 0-0.5782 0.0156-0.7344 0.1093-0.25 0.1719-0.4063 0.4532-0.4063 0.7344 0 0.2813 0.1407 0.5313 0.3594 0.7031 0.1719 0.1094 0.3438 0.1407 0.7813 0.1407h1.0781l-2.6406 6.5156c-0.4219 0-0.5782 0.0156-0.7344 0.125-0.25 0.1562-0.4063 0.4375-0.4063 0.7344 0 0.5625 0.375 0.8437 1.125 0.8437h2.2657c0.3593 0 0.5781-0.0312 0.7031-0.125 0.2656-0.1406 0.4062-0.4375 0.4062-0.7187 0-0.2813-0.125-0.5313-0.3437-0.7032-0.1719-0.125-0.3125-0.1562-0.7656-0.1562h-0.3907l0.3907-0.9844zm-0.7031-1.7031h-2.6719l1.3438-3.2656z" fill="#171717"/>
    <text id="text4852" x="169.5" y="340.34671" fill="#ffffff" font-family="sans-serif" font-size="14px" font-style="italic" textLength="61">IAdapter</text>
    <g stroke-width=".5">
      <line id="line4854" x1="141.5" x2="232.5" y1="351.5" y2="351.5" fill="#fff" stroke="#fcfcfc"/>
      <line id="line4856" x1="141.5" x2="232.5" y1="359.5" y2="359.5" fill="#fff" stroke="#fcfcfc"/>
      <rect id="finam.IComponent" x="390.5" y="41" width="119" height="178.38" rx="2.5" ry="2.5" fill="#262626" stroke="#e5e5e5" codeLine="8"/>
    </g>
  </g>
  <circle id="ellipse4860" cx="405.5" cy="57" r="11" fill="#a9dcdf" stroke="#e5e5e5"/>
  <g>
    <path id="path4862" d="m407.58 58.812 0.3907 0.9844h-0.3907c-0.4531 0-0.5625 0.0156-0.7187 0.125-0.25 0.1562-0.4063 0.4375-0.4063 0.7344 0 0.2656 0.1407 0.5156 0.3594 0.6718 0.1406 0.125 0.3438 0.1719 0.7656 0.1719h2.3594c0.3594 0 0.5781-0.0312 0.7188-0.125 0.25-0.1406 0.4062-0.4375 0.4062-0.7187 0-0.2813-0.1406-0.5313-0.3594-0.6875-0.1718-0.1407-0.3281-0.1719-0.7968-0.1719l-3.3907-8.2031h-3.6718c-0.4532 0-0.5782 0.0156-0.7344 0.1093-0.25 0.1719-0.4063 0.4532-0.4063 0.7344 0 0.2813 0.1407 0.5313 0.3594 0.7031 0.1719 0.1094 0.3438 0.1407 0.7813 0.1407h1.0781l-2.6406 6.5156c-0.4219 0-0.5782 0.0156-0.7344 0.125-0.25 0.1562-0.4063 0.4375-0.4063 0.7344 0 0.5625 0.375 0.8437 1.125 0.8437h2.2657c0.3593 0 0.5781-0.0312 0.7031-0.125 0.2656-0.1406 0.4062-0.4375 0.4062-0.7187 0-0.2813-0.125-0.5313-0.3437-0.7032-0.1719-0.125-0.3125-0.1562-0.7656-0.1562h-0.3907l0.3907-0.9844zm-0.7031-1.7031h-2.6719l1.3438-3.2656z" fill="#171717"/>
    <text id="text4864" x="419.5" y="61.846699" fill="#ffffff" font-family="sans-serif" font-size="14px" font-style="italic" textLength="87">IComponent</text>
    <line id="line4866" x1="391.5" x2="508.5" y1="73" y2="73" fill="#fff" stroke="#fcfcfc" stroke-width=".5"/>
  </g>
  <g fill="#ffffff" font-family="sans-serif" font-size="14px">
    <text id="text4868" x="396.5" y="89.995102" textLength="45">inputs</text>
    <text id="text4870" x="396.5" y="106.292" textLength="56">outputs</text>
    <text id="text4872" x="396.5" y="122.5889" textLength="44">status</text>
  </g>
  <line id="line4874" x1="391.5" x2="508.5" y1="129.89" y2="129.89" fill="#fff" stroke="#fcfcfc" stroke-width=".5"/>
  <g fill="#ffffff" font-family="sans-serif" font-size="14px">
    <text id="text4876" x="396.5" y="146.8857" textLength="67">initialze()</text>
    <text id="text4878" x="396.5" y="163.1826" textLength="69">connect()</text>
    <text id="text4880" x="396.5" y="179.47951" textLength="67">validate()</text>
    <text id="text4882" x="396.5" y="195.7764" textLength="61">update()</text>
    <text id="text4884" x="396.5" y="212.0732" textLength="62">finalize()</text>
  </g>
  <rect id="finam.IInput" x="243.5" y="98" width="87" height="64.297" rx="2.5" ry="2.5" fill="#262626" stroke="#e5e5e5" stroke-width=".5" codeLine="18"/>
  <circle id="ellipse4888" cx="265.25" cy="114" r="11" fill="#a9dcdf" stroke="#e5e5e5"/>
  <g>
    <path id="path4890" d="m267.33 115.81 0.3907 0.9844h-0.3907c-0.4531 0-0.5625 0.0156-0.7187 0.125-0.25 0.1562-0.4063 0.4375-0.4063 0.7344 0 0.2656 0.1407 0.5156 0.3594 0.6718 0.1406 0.125 0.3438 0.1719 0.7656 0.1719h2.3594c0.3594 0 0.5781-0.0312 0.7188-0.125 0.25-0.1406 0.4062-0.4375 0.4062-0.7187 0-0.2813-0.1406-0.5313-0.3594-0.6875-0.1718-0.1407-0.3281-0.1719-0.7968-0.1719l-3.3907-8.2031h-3.6718c-0.4532 0-0.5782 0.0156-0.7344 0.1093-0.25 0.1719-0.4063 0.4532-0.4063 0.7344 0 0.2813 0.1407 0.5313 0.3594 0.7031 0.1719 0.1094 0.3438 0.1407 0.7813 0.1407h1.0781l-2.6406 6.5156c-0.4219 0-0.5782 0.0156-0.7344 0.125-0.25 0.1562-0.4063 0.4375-0.4063 0.7344 0 0.5625 0.375 0.8437 1.125 0.8437h2.2657c0.3593 0 0.5781-0.0312 0.7031-0.125 0.2656-0.1406 0.4062-0.4375 0.4062-0.7187 0-0.2813-0.125-0.5313-0.3437-0.7032-0.1719-0.125-0.3125-0.1562-0.7656-0.1562h-0.3907l0.3907-0.9844zm-0.7031-1.7031h-2.6719l1.3438-3.2656z" fill="#171717"/>
    <text id="text4892" x="280.75" y="118.8467" fill="#ffffff" font-family="sans-serif" font-size="14px" font-style="italic" textLength="40">IInput</text>
    <line id="line4894" x1="244.5" x2="329.5" y1="130" y2="130" fill="#fff" stroke="#fcfcfc" stroke-width=".5"/>
    <line id="line4896" x1="244.5" x2="329.5" y1="138" y2="138" fill="#fff" stroke="#fcfcfc" stroke-width=".5"/>
    <text id="text4898" x="249.5" y="154.9951" fill="#ffffff" font-family="sans-serif" font-size="14px" textLength="75">pull_data()</text>
    <rect id="finam.IOutput" x="64.5" y="98" width="95" height="64.297" rx="2.5" ry="2.5" fill="#262626" stroke="#e5e5e5" stroke-width=".5" codeLine="21"/>
  </g>
  <circle id="ellipse4902" cx="84.45" cy="114" r="11" fill="#a9dcdf" stroke="#e5e5e5"/>
  <g>
    <path id="path4904" d="m86.528 115.81 0.3907 0.9844h-0.3907c-0.4531 0-0.5625 0.0156-0.7187 0.125-0.25 0.1562-0.4063 0.4375-0.4063 0.7344 0 0.2656 0.1407 0.5156 0.3594 0.6718 0.1406 0.125 0.3438 0.1719 0.7656 0.1719h2.3594c0.3594 0 0.5781-0.0312 0.7188-0.125 0.25-0.1406 0.4062-0.4375 0.4062-0.7187 0-0.2813-0.1406-0.5313-0.3594-0.6875-0.1718-0.1407-0.3281-0.1719-0.7968-0.1719l-3.3907-8.2031h-3.6718c-0.4532 0-0.5782 0.0156-0.7344 0.1093-0.25 0.1719-0.4063 0.4532-0.4063 0.7344 0 0.2813 0.1407 0.5313 0.3594 0.7031 0.1719 0.1094 0.3438 0.1407 0.7813 0.1407h1.0781l-2.6406 6.5156c-0.4219 0-0.5782 0.0156-0.7344 0.125-0.25 0.1562-0.4063 0.4375-0.4063 0.7344 0 0.5625 0.375 0.8437 1.125 0.8437h2.2657c0.3593 0 0.5781-0.0312 0.7031-0.125 0.2656-0.1406 0.4062-0.4375 0.4062-0.7187 0-0.2813-0.125-0.5313-0.3437-0.7032-0.1719-0.125-0.3125-0.1562-0.7656-0.1562h-0.3907l0.3907-0.9844zm-0.7031-1.7031h-2.6719l1.3438-3.2656z" fill="#171717"/>
    <text id="text4906" x="99.550003" y="118.8467" fill="#ffffff" font-family="sans-serif" font-size="14px" font-style="italic" textLength="52">IOutput</text>
    <line id="line4908" x1="65.5" x2="158.5" y1="130" y2="130" fill="#fff" stroke="#fcfcfc" stroke-width=".5"/>
    <line id="line4910" x1="65.5" x2="158.5" y1="138" y2="138" fill="#fff" stroke="#fcfcfc" stroke-width=".5"/>
    <text id="text4912" x="70.5" y="154.9951" fill="#ffffff" font-family="sans-serif" font-size="14px" textLength="83">push_data()</text>
    <rect id="finam.ITimeComponent" x="527.5" y="311.5" width="155" height="64.297" rx="2.5" ry="2.5" fill="#262626" stroke="#e5e5e5" stroke-width=".5" codeLine="24"/>
  </g>
  <circle id="ellipse4916" cx="542.5" cy="327.5" r="11" fill="#a9dcdf" stroke="#e5e5e5"/>
  <g>
    <path id="path4918" d="m544.58 329.31 0.3907 0.9844h-0.3907c-0.4531 0-0.5625 0.0156-0.7187 0.125-0.25 0.1562-0.4063 0.4375-0.4063 0.7344 0 0.2656 0.1407 0.5156 0.3594 0.6718 0.1406 0.125 0.3438 0.1719 0.7656 0.1719h2.3594c0.3594 0 0.5781-0.0312 0.7188-0.125 0.25-0.1406 0.4062-0.4375 0.4062-0.7187 0-0.2813-0.1406-0.5313-0.3594-0.6875-0.1718-0.1407-0.3281-0.1719-0.7968-0.1719l-3.3907-8.2031h-3.6718c-0.4532 0-0.5782 0.0156-0.7344 0.1093-0.25 0.1719-0.4063 0.4532-0.4063 0.7344 0 0.2813 0.1407 0.5313 0.3594 0.7031 0.1719 0.1094 0.3438 0.1407 0.7813 0.1407h1.0781l-2.6406 6.5156c-0.4219 0-0.5782 0.0156-0.7344 0.125-0.25 0.1562-0.4063 0.4375-0.4063 0.7344 0 0.5625 0.375 0.8437 1.125 0.8437h2.2657c0.3593 0 0.5781-0.0312 0.7031-0.125 0.2656-0.1406 0.4062-0.4375 0.4062-0.7187 0-0.2813-0.125-0.5313-0.3437-0.7032-0.1719-0.125-0.3125-0.1562-0.7656-0.1562h-0.3907l0.3907-0.9844zm-0.7031-1.7031h-2.6719l1.3438-3.2656z" fill="#171717"/>
    <text id="text4920" x="556.5" y="332.34671" fill="#ffffff" font-family="sans-serif" font-size="14px" font-style="italic" textLength="123">ITimeComponent</text>
    <line id="line4922" x1="528.5" x2="681.5" y1="343.5" y2="343.5" fill="#fff" stroke="#fcfcfc" stroke-width=".5"/>
    <text id="text4924" x="533.5" y="360.49509" fill="#ffffff" font-family="sans-serif" font-size="14px" textLength="34">time</text>
    <line id="line4926" x1="528.5" x2="681.5" y1="367.8" y2="367.8" fill="#fff" stroke="#fcfcfc" stroke-width=".5"/>
    <rect id="finam.TimeComponent" x="442" y="492.5" width="154" height="48" rx="2.5" ry="2.5" fill="#262626" stroke="#e5e5e5" stroke-width=".5" codeLine="27"/>
  </g>
  <circle id="ellipse4930" cx="457" cy="508.5" r="11" fill="#add1b2" stroke="#e5e5e5"/>
  <g>
    <path id="path4932" d="m459.34 504.17c-0.9375-0.4375-1.5313-0.5781-2.4063-0.5781-2.625 0-4.625 2.0781-4.625 4.7968v1.125c0 2.5782 2.1094 4.4688 5 4.4688 1.2188 0 2.375-0.2969 3.125-0.8438 0.5781-0.4062 0.9063-0.8593 0.9063-1.25 0-0.4531-0.3907-0.8437-0.8594-0.8437-0.2188 0-0.4219 0.0781-0.6094 0.2656-0.4531 0.4844-0.4531 0.4844-0.6406 0.5781-0.4219 0.2657-1.1094 0.3907-1.875 0.3907-2.0469 0-3.3438-1.0938-3.3438-2.7969v-1.0938c0-1.7812 1.25-3.0937 2.9844-3.0937 0.5781 0 1.1875 0.1562 1.6563 0.4062 0.4843 0.2813 0.6562 0.5 0.75 0.9063 0.0625 0.4062 0.0937 0.5312 0.2343 0.6562 0.1407 0.1407 0.375 0.25 0.5938 0.25 0.2656 0 0.5312-0.1406 0.7031-0.3593 0.1094-0.1563 0.1406-0.3438 0.1406-0.7657v-1.4218c0-0.4375-0.0156-0.5625-0.1093-0.7188-0.1563-0.2656-0.4375-0.4062-0.7344-0.4062s-0.5 0.0937-0.7188 0.4062z" fill="#171717"/>
    <text id="text4934" x="471" y="513.34668" fill="#ffffff" font-family="sans-serif" font-size="14px" textLength="122">TimeComponent</text>
    <g stroke-width=".5">
      <line id="line4936" x1="443" x2="595" y1="524.5" y2="524.5" fill="#fff" stroke="#fcfcfc"/>
      <line id="line4938" x1="443" x2="595" y1="532.5" y2="532.5" fill="#fff" stroke="#fcfcfc"/>
      <rect id="finam.Component" x="374" y="279" width="118" height="129.48" rx="2.5" ry="2.5" fill="#262626" stroke="#e5e5e5" codeLine="29"/>
    </g>
  </g>
  <circle id="ellipse4942" cx="389" cy="295" r="11" fill="#add1b2" stroke="#e5e5e5"/>
  <g>
    <path id="path4944" d="m391.34 290.67c-0.9375-0.4375-1.5313-0.5781-2.4063-0.5781-2.625 0-4.625 2.0781-4.625 4.7968v1.125c0 2.5782 2.1094 4.4688 5 4.4688 1.2188 0 2.375-0.2969 3.125-0.8438 0.5781-0.4062 0.9063-0.8593 0.9063-1.25 0-0.4531-0.3907-0.8437-0.8594-0.8437-0.2188 0-0.4219 0.0781-0.6094 0.2656-0.4531 0.4844-0.4531 0.4844-0.6406 0.5781-0.4219 0.2657-1.1094 0.3907-1.875 0.3907-2.0469 0-3.3438-1.0938-3.3438-2.7969v-1.0938c0-1.7812 1.25-3.0937 2.9844-3.0937 0.5781 0 1.1875 0.1562 1.6563 0.4062 0.4843 0.2813 0.6562 0.5 0.75 0.9063 0.0625 0.4062 0.0937 0.5312 0.2343 0.6562 0.1407 0.1407 0.375 0.25 0.5938 0.25 0.2656 0 0.5312-0.1406 0.7031-0.3593 0.1094-0.1563 0.1406-0.3438 0.1406-0.7657v-1.4218c0-0.4375-0.0156-0.5625-0.1093-0.7188-0.1563-0.2656-0.4375-0.4062-0.7344-0.4062s-0.5 0.0937-0.7188 0.4062z" fill="#171717"/>
    <text id="text4946" x="403" y="299.84671" fill="#ffffff" font-family="sans-serif" font-size="14px" textLength="86">Component</text>
    <line id="line4948" x1="375" x2="491" y1="311" y2="311" fill="#fff" stroke="#fcfcfc" stroke-width=".5"/>
    <line id="line4950" x1="375" x2="491" y1="319" y2="319" fill="#fff" stroke="#fcfcfc" stroke-width=".5"/>
  </g>
  <g fill="#ffffff" font-family="sans-serif" font-size="14px">
    <text id="text4952" x="380" y="335.99509" textLength="74">_initialze()</text>
    <text id="text4954" x="380" y="352.29199" textLength="76">_connect()</text>
    <text id="text4956" x="380" y="368.5889" textLength="74">_validate()</text>
    <text id="text4958" x="380" y="384.88571" textLength="68">_update()</text>
    <text id="text4960" x="380" y="401.18259" textLength="69">_finalize()</text>
  </g>
  <rect id="finam.Input" x="269" y="319.5" width="70" height="48" rx="2.5" ry="2.5" fill="#262626" stroke="#e5e5e5" stroke-width=".5" codeLine="36"/>
  <circle id="ellipse4964" cx="284" cy="335.5" r="11" fill="#add1b2" stroke="#e5e5e5"/>
  <g>
    <path id="path4966" d="m286.34 331.17c-0.9375-0.4375-1.5313-0.5781-2.4063-0.5781-2.625 0-4.625 2.0781-4.625 4.7968v1.125c0 2.5782 2.1094 4.4688 5 4.4688 1.2188 0 2.375-0.2969 3.125-0.8438 0.5781-0.4062 0.9063-0.8593 0.9063-1.25 0-0.4531-0.3907-0.8437-0.8594-0.8437-0.2188 0-0.4219 0.0781-0.6094 0.2656-0.4531 0.4844-0.4531 0.4844-0.6406 0.5781-0.4219 0.2657-1.1094 0.3907-1.875 0.3907-2.0469 0-3.3438-1.0938-3.3438-2.7969v-1.0938c0-1.7812 1.25-3.0937 2.9844-3.0937 0.5781 0 1.1875 0.1562 1.6563 0.4062 0.4843 0.2813 0.6562 0.5 0.75 0.9063 0.0625 0.4062 0.0937 0.5312 0.2343 0.6562 0.1407 0.1407 0.375 0.25 0.5938 0.25 0.2656 0 0.5312-0.1406 0.7031-0.3593 0.1094-0.1563 0.1406-0.3438 0.1406-0.7657v-1.4218c0-0.4375-0.0156-0.5625-0.1093-0.7188-0.1563-0.2656-0.4375-0.4062-0.7344-0.4062s-0.5 0.0937-0.7188 0.4062z" fill="#171717"/>
    <text id="text4968" x="298" y="340.34671" fill="#ffffff" font-family="sans-serif" font-size="14px" textLength="38">Input</text>
    <g stroke-width=".5">
      <line id="line4970" x1="270" x2="338" y1="351.5" y2="351.5" fill="#fff" stroke="#fcfcfc"/>
      <line id="line4972" x1="270" x2="338" y1="359.5" y2="359.5" fill="#fff" stroke="#fcfcfc"/>
      <rect id="finam.Output" x="22.5" y="319.5" width="83" height="48" rx="2.5" ry="2.5" fill="#262626" stroke="#e5e5e5" codeLine="38"/>
    </g>
  </g>
  <circle id="ellipse4976" cx="37.5" cy="335.5" r="11" fill="#add1b2" stroke="#e5e5e5"/>
  <g>
    <path id="path4978" d="m39.844 331.17c-0.9375-0.4375-1.5313-0.5781-2.4063-0.5781-2.625 0-4.625 2.0781-4.625 4.7968v1.125c0 2.5782 2.1094 4.4688 5 4.4688 1.2188 0 2.375-0.2969 3.125-0.8438 0.5781-0.4062 0.9063-0.8593 0.9063-1.25 0-0.4531-0.3907-0.8437-0.8594-0.8437-0.2188 0-0.4219 0.0781-0.6094 0.2656-0.4531 0.4844-0.4531 0.4844-0.6406 0.5781-0.4219 0.2657-1.1094 0.3907-1.875 0.3907-2.0469 0-3.3438-1.0938-3.3438-2.7969v-1.0938c0-1.7812 1.25-3.0937 2.9844-3.0937 0.5781 0 1.1875 0.1562 1.6563 0.4062 0.4843 0.2813 0.6562 0.5 0.75 0.9063 0.0625 0.4062 0.0937 0.5312 0.2343 0.6562 0.1407 0.1407 0.375 0.25 0.5938 0.25 0.2656 0 0.5312-0.1406 0.7031-0.3593 0.1094-0.1563 0.1406-0.3438 0.1406-0.7657v-1.4218c0-0.4375-0.0156-0.5625-0.1093-0.7188-0.1563-0.2656-0.4375-0.4062-0.7344-0.4062s-0.5 0.0937-0.7188 0.4062z" fill="#171717"/>
    <text id="text4980" x="51.5" y="340.34671" fill="#ffffff" font-family="sans-serif" font-size="14px" textLength="51">Output</text>
    <line id="line4982" x1="23.5" x2="104.5" y1="351.5" y2="351.5" fill="#fff" stroke="#fcfcfc" stroke-width=".5"/>
    <line id="line4984" x1="23.5" x2="104.5" y1="359.5" y2="359.5" fill="#fff" stroke="#fcfcfc" stroke-width=".5"/>
  </g>
  <g fill="none" stroke="#e5e5e5">
    <path id="finam.IAdapter-backto-finam.Adapter" d="m187 387.58v80.397" codeLine="40"/>
    <polygon id="polygon4988" points="187 367.56 194 387.56 180 387.56"/>
    <path id="finam.Input-backto-finam.Adapter" d="m276.8 384.26c-17.099 24.992-39.254 57.371-57.278 83.714" codeLine="41"/>
    <polygon id="polygon4992" points="288.22 367.56 282.7 388.02 271.15 380.12"/>
    <path id="finam.Output-backto-finam.Adapter" d="m92.339 383.9c18.011 25.04 41.436 57.606 60.477 84.077" codeLine="42"/>
    <polygon id="polygon4996" points="80.588 367.56 97.95 379.71 86.584 387.88"/>
    <path id="finam.IInput-backto-finam.IAdapter" d="m263.56 180.58c-20.687 43.753-49.919 105.58-65.601 138.74" codeLine="43"/>
    <polygon id="polygon5000" points="272.24 162.21 270.02 183.28 257.37 177.3"/>
    <path id="finam.IOutput-backto-finam.IAdapter" d="m129.79 181.17c15.502 43.717 37.282 105.14 48.991 138.15" codeLine="44"/>
    <polygon id="polygon5004" points="123.07 162.21 136.35 178.72 123.15 183.4"/>
    <path id="finam.IComponent-backto-finam.ITimeComponent" d="m521.73 228.88c21.838 29.798 44.291 60.435 60.37 82.376" codeLine="45"/>
    <polygon id="polygon5008" points="509.7 212.47 527.17 224.46 515.88 232.74"/>
    <path id="finam.ITimeComponent-backto-finam.TimeComponent" d="m580.22 393.78c-16.298 32.408-36.881 73.333-49.542 98.508" codeLine="46"/>
    <polygon id="polygon5012" points="589.23 375.86 586.49 396.88 573.99 390.59"/>
    <path id="finam.Component-backto-finam.TimeComponent" d="m474.03 426.09c12.204 24.267 24.621 48.955 33.305 66.223" codeLine="47"/>
    <polygon id="polygon5016" points="465.02 408.17 480.26 422.9 467.76 429.19"/>
    <path id="finam.IComponent-backto-finam.Component" d="m441.27 239.56c-1.084 13.486-2.163 26.91-3.167 39.395" codeLine="48"/>
    <polygon id="polygon5020" points="442.91 219.16 448.29 239.66 434.33 238.54"/>
    <path id="finam.IInput-backto-finam.Input" d="m291.13 182.36c3.508 43.636 8.379 104.25 11.009 136.97" codeLine="49"/>
    <polygon id="polygon5024" points="289.51 162.21 298.09 181.58 284.13 182.7"/>
    <path id="finam.IOutput-backto-finam.Output" d="m100.48 181.77c-9.913 43.678-23.76 104.69-31.22 137.56" codeLine="50"/>
    <polygon id="polygon5028" points="104.92 162.21 107.32 183.26 93.665 180.16"/>
  </g>
</svg>
