<?xml version="1.0" encoding="UTF-8" standalone="no"?><svg xmlns="http://www.w3.org/2000/svg" xmlns:xlink="http://www.w3.org/1999/xlink" contentStyleType="text/css" height="588px" preserveAspectRatio="none" style="width:706px;height:588px;background:#FFFFFF;" version="1.1" viewBox="0 0 706 588" width="706px" zoomAndPan="magnify"><defs/><g><!--MD5=[f18b69e29ea760d2f13f7c5b2aa3ba98]
cluster finam--><g id="cluster_finam"><path d="M8.5,6 L56.5,6 A3.75,3.75 0 0 1 59,8.5 L66,28.2969 L696.5,28.2969 A2.5,2.5 0 0 1 699,30.7969 L699,578.5 A2.5,2.5 0 0 1 696.5,581 L8.5,581 A2.5,2.5 0 0 1 6,578.5 L6,8.5 A2.5,2.5 0 0 1 8.5,6 " fill="none" style="stroke:#000000;stroke-width:1.5;"/><line style="stroke:#000000;stroke-width:1.5;" x1="6" x2="66" y1="28.2969" y2="28.2969"/><text fill="#000000" font-family="sans-serif" font-size="14" font-weight="bold" lengthAdjust="spacing" textLength="47" x="10" y="20.9951">finam</text></g><!--MD5=[046e7ca667fc78ecf5d8f475085207d9]
class finam.Adapter--><g id="elem_finam.Adapter"><rect codeLine="1" fill="#F1F1F1" height="96.8906" id="finam.Adapter" rx="2.5" ry="2.5" style="stroke:#181818;stroke-width:0.5;" width="143" x="115.5" y="468"/><ellipse cx="153.9" cy="484" fill="#ADD1B2" rx="11" ry="11" style="stroke:#181818;stroke-width:1.0;"/><path d="M156.2438,479.6719 C155.3063,479.2344 154.7125,479.0938 153.8375,479.0938 C151.2125,479.0938 149.2125,481.1719 149.2125,483.8906 L149.2125,485.0156 C149.2125,487.5938 151.3219,489.4844 154.2125,489.4844 C155.4313,489.4844 156.5875,489.1875 157.3375,488.6406 C157.9156,488.2344 158.2438,487.7813 158.2438,487.3906 C158.2438,486.9375 157.8531,486.5469 157.3844,486.5469 C157.1656,486.5469 156.9625,486.625 156.775,486.8125 C156.3219,487.2969 156.3219,487.2969 156.1344,487.3906 C155.7125,487.6563 155.025,487.7813 154.2594,487.7813 C152.2125,487.7813 150.9156,486.6875 150.9156,484.9844 L150.9156,483.8906 C150.9156,482.1094 152.1656,480.7969 153.9,480.7969 C154.4781,480.7969 155.0875,480.9531 155.5563,481.2031 C156.0406,481.4844 156.2125,481.7031 156.3063,482.1094 C156.3688,482.5156 156.4,482.6406 156.5406,482.7656 C156.6813,482.9063 156.9156,483.0156 157.1344,483.0156 C157.4,483.0156 157.6656,482.875 157.8375,482.6563 C157.9469,482.5 157.9781,482.3125 157.9781,481.8906 L157.9781,480.4688 C157.9781,480.0313 157.9625,479.9063 157.8688,479.75 C157.7125,479.4844 157.4313,479.3438 157.1344,479.3438 C156.8375,479.3438 156.6344,479.4375 156.4156,479.75 L156.2438,479.6719 Z " fill="#000000"/><text fill="#000000" font-family="sans-serif" font-size="14" lengthAdjust="spacing" textLength="59" x="173.1" y="488.8467">Adapter</text><line style="stroke:#181818;stroke-width:0.5;" x1="116.5" x2="257.5" y1="500" y2="500"/><line style="stroke:#181818;stroke-width:0.5;" x1="116.5" x2="257.5" y1="508" y2="508"/><text fill="#000000" font-family="sans-serif" font-size="14" lengthAdjust="spacing" textLength="81" x="121.5" y="524.9951">_get_data()</text><text fill="#000000" font-family="sans-serif" font-size="14" lengthAdjust="spacing" textLength="77" x="121.5" y="541.292">_get_info()</text><text fill="#000000" font-family="sans-serif" font-size="14" lengthAdjust="spacing" textLength="131" x="121.5" y="557.5889">_source_updated()</text></g><!--MD5=[28e98d6094c546dd017c7c0783d08ecb]
class finam.IAdapter--><g id="elem_finam.IAdapter"><rect codeLine="6" fill="#F1F1F1" height="48" id="finam.IAdapter" rx="2.5" ry="2.5" style="stroke:#181818;stroke-width:0.5;" width="93" x="140.5" y="319.5"/><ellipse cx="155.5" cy="335.5" fill="#A9DCDF" rx="11" ry="11" style="stroke:#181818;stroke-width:1.0;"/><path d="M157.5781,337.3125 L157.9688,338.2969 L157.5781,338.2969 C157.125,338.2969 157.0156,338.3125 156.8594,338.4219 C156.6094,338.5781 156.4531,338.8594 156.4531,339.1563 C156.4531,339.4219 156.5938,339.6719 156.8125,339.8281 C156.9531,339.9531 157.1563,340 157.5781,340 L159.9375,340 C160.2969,340 160.5156,339.9688 160.6563,339.875 C160.9063,339.7344 161.0625,339.4375 161.0625,339.1563 C161.0625,338.875 160.9219,338.625 160.7031,338.4688 C160.5313,338.3281 160.375,338.2969 159.9063,338.2969 L156.5156,330.0938 L152.8438,330.0938 C152.3906,330.0938 152.2656,330.1094 152.1094,330.2031 C151.8594,330.375 151.7031,330.6563 151.7031,330.9375 C151.7031,331.2188 151.8438,331.4688 152.0625,331.6406 C152.2344,331.75 152.4063,331.7813 152.8438,331.7813 L153.9219,331.7813 L151.2813,338.2969 C150.8594,338.2969 150.7031,338.3125 150.5469,338.4219 C150.2969,338.5781 150.1406,338.8594 150.1406,339.1563 C150.1406,339.7188 150.5156,340 151.2656,340 L153.5313,340 C153.8906,340 154.1094,339.9688 154.2344,339.875 C154.5,339.7344 154.6406,339.4375 154.6406,339.1563 C154.6406,338.875 154.5156,338.625 154.2969,338.4531 C154.125,338.3281 153.9844,338.2969 153.5313,338.2969 L153.1406,338.2969 L153.5313,337.3125 L157.5781,337.3125 Z M156.875,335.6094 L154.2031,335.6094 L155.5469,332.3438 L156.875,335.6094 Z " fill="#000000"/><text fill="#000000" font-family="sans-serif" font-size="14" font-style="italic" lengthAdjust="spacing" textLength="61" x="169.5" y="340.3467">IAdapter</text><line style="stroke:#181818;stroke-width:0.5;" x1="141.5" x2="232.5" y1="351.5" y2="351.5"/><line style="stroke:#181818;stroke-width:0.5;" x1="141.5" x2="232.5" y1="359.5" y2="359.5"/></g><!--MD5=[f8be4e23c1470f416a2cdc3507456b11]
class finam.IComponent--><g id="elem_finam.IComponent"><rect codeLine="8" fill="#F1F1F1" height="178.375" id="finam.IComponent" rx="2.5" ry="2.5" style="stroke:#181818;stroke-width:0.5;" width="119" x="390.5" y="41"/><ellipse cx="405.5" cy="57" fill="#A9DCDF" rx="11" ry="11" style="stroke:#181818;stroke-width:1.0;"/><path d="M407.5781,58.8125 L407.9688,59.7969 L407.5781,59.7969 C407.125,59.7969 407.0156,59.8125 406.8594,59.9219 C406.6094,60.0781 406.4531,60.3594 406.4531,60.6563 C406.4531,60.9219 406.5938,61.1719 406.8125,61.3281 C406.9531,61.4531 407.1563,61.5 407.5781,61.5 L409.9375,61.5 C410.2969,61.5 410.5156,61.4688 410.6563,61.375 C410.9063,61.2344 411.0625,60.9375 411.0625,60.6563 C411.0625,60.375 410.9219,60.125 410.7031,59.9688 C410.5313,59.8281 410.375,59.7969 409.9063,59.7969 L406.5156,51.5938 L402.8438,51.5938 C402.3906,51.5938 402.2656,51.6094 402.1094,51.7031 C401.8594,51.875 401.7031,52.1563 401.7031,52.4375 C401.7031,52.7188 401.8438,52.9688 402.0625,53.1406 C402.2344,53.25 402.4063,53.2813 402.8438,53.2813 L403.9219,53.2813 L401.2813,59.7969 C400.8594,59.7969 400.7031,59.8125 400.5469,59.9219 C400.2969,60.0781 400.1406,60.3594 400.1406,60.6563 C400.1406,61.2188 400.5156,61.5 401.2656,61.5 L403.5313,61.5 C403.8906,61.5 404.1094,61.4688 404.2344,61.375 C404.5,61.2344 404.6406,60.9375 404.6406,60.6563 C404.6406,60.375 404.5156,60.125 404.2969,59.9531 C404.125,59.8281 403.9844,59.7969 403.5313,59.7969 L403.1406,59.7969 L403.5313,58.8125 L407.5781,58.8125 Z M406.875,57.1094 L404.2031,57.1094 L405.5469,53.8438 L406.875,57.1094 Z " fill="#000000"/><text fill="#000000" font-family="sans-serif" font-size="14" font-style="italic" lengthAdjust="spacing" textLength="87" x="419.5" y="61.8467">IComponent</text><line style="stroke:#181818;stroke-width:0.5;" x1="391.5" x2="508.5" y1="73" y2="73"/><text fill="#000000" font-family="sans-serif" font-size="14" lengthAdjust="spacing" textLength="45" x="396.5" y="89.9951">inputs</text><text fill="#000000" font-family="sans-serif" font-size="14" lengthAdjust="spacing" textLength="56" x="396.5" y="106.292">outputs</text><text fill="#000000" font-family="sans-serif" font-size="14" lengthAdjust="spacing" textLength="44" x="396.5" y="122.5889">status</text><line style="stroke:#181818;stroke-width:0.5;" x1="391.5" x2="508.5" y1="129.8906" y2="129.8906"/><text fill="#000000" font-family="sans-serif" font-size="14" lengthAdjust="spacing" textLength="67" x="396.5" y="146.8857">initialze()</text><text fill="#000000" font-family="sans-serif" font-size="14" lengthAdjust="spacing" textLength="69" x="396.5" y="163.1826">connect()</text><text fill="#000000" font-family="sans-serif" font-size="14" lengthAdjust="spacing" textLength="67" x="396.5" y="179.4795">validate()</text><text fill="#000000" font-family="sans-serif" font-size="14" lengthAdjust="spacing" textLength="61" x="396.5" y="195.7764">update()</text><text fill="#000000" font-family="sans-serif" font-size="14" lengthAdjust="spacing" textLength="62" x="396.5" y="212.0732">finalize()</text></g><!--MD5=[368504d27a9e8db6556e57ba9b21f010]
class finam.IInput--><g id="elem_finam.IInput"><rect codeLine="18" fill="#F1F1F1" height="64.2969" id="finam.IInput" rx="2.5" ry="2.5" style="stroke:#181818;stroke-width:0.5;" width="87" x="243.5" y="98"/><ellipse cx="265.25" cy="114" fill="#A9DCDF" rx="11" ry="11" style="stroke:#181818;stroke-width:1.0;"/><path d="M267.3281,115.8125 L267.7188,116.7969 L267.3281,116.7969 C266.875,116.7969 266.7656,116.8125 266.6094,116.9219 C266.3594,117.0781 266.2031,117.3594 266.2031,117.6563 C266.2031,117.9219 266.3438,118.1719 266.5625,118.3281 C266.7031,118.4531 266.9063,118.5 267.3281,118.5 L269.6875,118.5 C270.0469,118.5 270.2656,118.4688 270.4063,118.375 C270.6563,118.2344 270.8125,117.9375 270.8125,117.6563 C270.8125,117.375 270.6719,117.125 270.4531,116.9688 C270.2813,116.8281 270.125,116.7969 269.6563,116.7969 L266.2656,108.5938 L262.5938,108.5938 C262.1406,108.5938 262.0156,108.6094 261.8594,108.7031 C261.6094,108.875 261.4531,109.1563 261.4531,109.4375 C261.4531,109.7188 261.5938,109.9688 261.8125,110.1406 C261.9844,110.25 262.1563,110.2813 262.5938,110.2813 L263.6719,110.2813 L261.0313,116.7969 C260.6094,116.7969 260.4531,116.8125 260.2969,116.9219 C260.0469,117.0781 259.8906,117.3594 259.8906,117.6563 C259.8906,118.2188 260.2656,118.5 261.0156,118.5 L263.2813,118.5 C263.6406,118.5 263.8594,118.4688 263.9844,118.375 C264.25,118.2344 264.3906,117.9375 264.3906,117.6563 C264.3906,117.375 264.2656,117.125 264.0469,116.9531 C263.875,116.8281 263.7344,116.7969 263.2813,116.7969 L262.8906,116.7969 L263.2813,115.8125 L267.3281,115.8125 Z M266.625,114.1094 L263.9531,114.1094 L265.2969,110.8438 L266.625,114.1094 Z " fill="#000000"/><text fill="#000000" font-family="sans-serif" font-size="14" font-style="italic" lengthAdjust="spacing" textLength="40" x="280.75" y="118.8467">IInput</text><line style="stroke:#181818;stroke-width:0.5;" x1="244.5" x2="329.5" y1="130" y2="130"/><line style="stroke:#181818;stroke-width:0.5;" x1="244.5" x2="329.5" y1="138" y2="138"/><text fill="#000000" font-family="sans-serif" font-size="14" lengthAdjust="spacing" textLength="75" x="249.5" y="154.9951">pull_data()</text></g><!--MD5=[9b4b1793a8d55170d9fb96c6131b5225]
class finam.IOutput--><g id="elem_finam.IOutput"><rect codeLine="21" fill="#F1F1F1" height="64.2969" id="finam.IOutput" rx="2.5" ry="2.5" style="stroke:#181818;stroke-width:0.5;" width="95" x="64.5" y="98"/><ellipse cx="84.45" cy="114" fill="#A9DCDF" rx="11" ry="11" style="stroke:#181818;stroke-width:1.0;"/><path d="M86.5281,115.8125 L86.9188,116.7969 L86.5281,116.7969 C86.075,116.7969 85.9656,116.8125 85.8094,116.9219 C85.5594,117.0781 85.4031,117.3594 85.4031,117.6563 C85.4031,117.9219 85.5438,118.1719 85.7625,118.3281 C85.9031,118.4531 86.1063,118.5 86.5281,118.5 L88.8875,118.5 C89.2469,118.5 89.4656,118.4688 89.6063,118.375 C89.8563,118.2344 90.0125,117.9375 90.0125,117.6563 C90.0125,117.375 89.8719,117.125 89.6531,116.9688 C89.4813,116.8281 89.325,116.7969 88.8563,116.7969 L85.4656,108.5938 L81.7938,108.5938 C81.3406,108.5938 81.2156,108.6094 81.0594,108.7031 C80.8094,108.875 80.6531,109.1563 80.6531,109.4375 C80.6531,109.7188 80.7938,109.9688 81.0125,110.1406 C81.1844,110.25 81.3563,110.2813 81.7938,110.2813 L82.8719,110.2813 L80.2313,116.7969 C79.8094,116.7969 79.6531,116.8125 79.4969,116.9219 C79.2469,117.0781 79.0906,117.3594 79.0906,117.6563 C79.0906,118.2188 79.4656,118.5 80.2156,118.5 L82.4813,118.5 C82.8406,118.5 83.0594,118.4688 83.1844,118.375 C83.45,118.2344 83.5906,117.9375 83.5906,117.6563 C83.5906,117.375 83.4656,117.125 83.2469,116.9531 C83.075,116.8281 82.9344,116.7969 82.4813,116.7969 L82.0906,116.7969 L82.4813,115.8125 L86.5281,115.8125 Z M85.825,114.1094 L83.1531,114.1094 L84.4969,110.8438 L85.825,114.1094 Z " fill="#000000"/><text fill="#000000" font-family="sans-serif" font-size="14" font-style="italic" lengthAdjust="spacing" textLength="52" x="99.55" y="118.8467">IOutput</text><line style="stroke:#181818;stroke-width:0.5;" x1="65.5" x2="158.5" y1="130" y2="130"/><line style="stroke:#181818;stroke-width:0.5;" x1="65.5" x2="158.5" y1="138" y2="138"/><text fill="#000000" font-family="sans-serif" font-size="14" lengthAdjust="spacing" textLength="83" x="70.5" y="154.9951">push_data()</text></g><!--MD5=[c46782fbc2f9e11523bd2884327b0fe8]
class finam.ITimeComponent--><g id="elem_finam.ITimeComponent"><rect codeLine="24" fill="#F1F1F1" height="64.2969" id="finam.ITimeComponent" rx="2.5" ry="2.5" style="stroke:#181818;stroke-width:0.5;" width="155" x="527.5" y="311.5"/><ellipse cx="542.5" cy="327.5" fill="#A9DCDF" rx="11" ry="11" style="stroke:#181818;stroke-width:1.0;"/><path d="M544.5781,329.3125 L544.9688,330.2969 L544.5781,330.2969 C544.125,330.2969 544.0156,330.3125 543.8594,330.4219 C543.6094,330.5781 543.4531,330.8594 543.4531,331.1563 C543.4531,331.4219 543.5938,331.6719 543.8125,331.8281 C543.9531,331.9531 544.1563,332 544.5781,332 L546.9375,332 C547.2969,332 547.5156,331.9688 547.6563,331.875 C547.9063,331.7344 548.0625,331.4375 548.0625,331.1563 C548.0625,330.875 547.9219,330.625 547.7031,330.4688 C547.5313,330.3281 547.375,330.2969 546.9063,330.2969 L543.5156,322.0938 L539.8438,322.0938 C539.3906,322.0938 539.2656,322.1094 539.1094,322.2031 C538.8594,322.375 538.7031,322.6563 538.7031,322.9375 C538.7031,323.2188 538.8438,323.4688 539.0625,323.6406 C539.2344,323.75 539.4063,323.7813 539.8438,323.7813 L540.9219,323.7813 L538.2813,330.2969 C537.8594,330.2969 537.7031,330.3125 537.5469,330.4219 C537.2969,330.5781 537.1406,330.8594 537.1406,331.1563 C537.1406,331.7188 537.5156,332 538.2656,332 L540.5313,332 C540.8906,332 541.1094,331.9688 541.2344,331.875 C541.5,331.7344 541.6406,331.4375 541.6406,331.1563 C541.6406,330.875 541.5156,330.625 541.2969,330.4531 C541.125,330.3281 540.9844,330.2969 540.5313,330.2969 L540.1406,330.2969 L540.5313,329.3125 L544.5781,329.3125 Z M543.875,327.6094 L541.2031,327.6094 L542.5469,324.3438 L543.875,327.6094 Z " fill="#000000"/><text fill="#000000" font-family="sans-serif" font-size="14" font-style="italic" lengthAdjust="spacing" textLength="123" x="556.5" y="332.3467">ITimeComponent</text><line style="stroke:#181818;stroke-width:0.5;" x1="528.5" x2="681.5" y1="343.5" y2="343.5"/><text fill="#000000" font-family="sans-serif" font-size="14" lengthAdjust="spacing" textLength="34" x="533.5" y="360.4951">time</text><line style="stroke:#181818;stroke-width:0.5;" x1="528.5" x2="681.5" y1="367.7969" y2="367.7969"/></g><!--MD5=[f04ba3a8595dfe0bbff4af67c644e03c]
class finam.TimeComponent--><g id="elem_finam.TimeComponent"><rect codeLine="27" fill="#F1F1F1" height="48" id="finam.TimeComponent" rx="2.5" ry="2.5" style="stroke:#181818;stroke-width:0.5;" width="154" x="442" y="492.5"/><ellipse cx="457" cy="508.5" fill="#ADD1B2" rx="11" ry="11" style="stroke:#181818;stroke-width:1.0;"/><path d="M459.3438,504.1719 C458.4063,503.7344 457.8125,503.5938 456.9375,503.5938 C454.3125,503.5938 452.3125,505.6719 452.3125,508.3906 L452.3125,509.5156 C452.3125,512.0938 454.4219,513.9844 457.3125,513.9844 C458.5313,513.9844 459.6875,513.6875 460.4375,513.1406 C461.0156,512.7344 461.3438,512.2813 461.3438,511.8906 C461.3438,511.4375 460.9531,511.0469 460.4844,511.0469 C460.2656,511.0469 460.0625,511.125 459.875,511.3125 C459.4219,511.7969 459.4219,511.7969 459.2344,511.8906 C458.8125,512.1563 458.125,512.2813 457.3594,512.2813 C455.3125,512.2813 454.0156,511.1875 454.0156,509.4844 L454.0156,508.3906 C454.0156,506.6094 455.2656,505.2969 457,505.2969 C457.5781,505.2969 458.1875,505.4531 458.6563,505.7031 C459.1406,505.9844 459.3125,506.2031 459.4063,506.6094 C459.4688,507.0156 459.5,507.1406 459.6406,507.2656 C459.7813,507.4063 460.0156,507.5156 460.2344,507.5156 C460.5,507.5156 460.7656,507.375 460.9375,507.1563 C461.0469,507 461.0781,506.8125 461.0781,506.3906 L461.0781,504.9688 C461.0781,504.5313 461.0625,504.4063 460.9688,504.25 C460.8125,503.9844 460.5313,503.8438 460.2344,503.8438 C459.9375,503.8438 459.7344,503.9375 459.5156,504.25 L459.3438,504.1719 Z " fill="#000000"/><text fill="#000000" font-family="sans-serif" font-size="14" lengthAdjust="spacing" textLength="122" x="471" y="513.3467">TimeComponent</text><line style="stroke:#181818;stroke-width:0.5;" x1="443" x2="595" y1="524.5" y2="524.5"/><line style="stroke:#181818;stroke-width:0.5;" x1="443" x2="595" y1="532.5" y2="532.5"/></g><!--MD5=[3db9e4d25b8ff187ee32dd2d8460f1d6]
class finam.Component--><g id="elem_finam.Component"><rect codeLine="29" fill="#F1F1F1" height="129.4844" id="finam.Component" rx="2.5" ry="2.5" style="stroke:#181818;stroke-width:0.5;" width="118" x="374" y="279"/><ellipse cx="389" cy="295" fill="#ADD1B2" rx="11" ry="11" style="stroke:#181818;stroke-width:1.0;"/><path d="M391.3438,290.6719 C390.4063,290.2344 389.8125,290.0938 388.9375,290.0938 C386.3125,290.0938 384.3125,292.1719 384.3125,294.8906 L384.3125,296.0156 C384.3125,298.5938 386.4219,300.4844 389.3125,300.4844 C390.5313,300.4844 391.6875,300.1875 392.4375,299.6406 C393.0156,299.2344 393.3438,298.7813 393.3438,298.3906 C393.3438,297.9375 392.9531,297.5469 392.4844,297.5469 C392.2656,297.5469 392.0625,297.625 391.875,297.8125 C391.4219,298.2969 391.4219,298.2969 391.2344,298.3906 C390.8125,298.6563 390.125,298.7813 389.3594,298.7813 C387.3125,298.7813 386.0156,297.6875 386.0156,295.9844 L386.0156,294.8906 C386.0156,293.1094 387.2656,291.7969 389,291.7969 C389.5781,291.7969 390.1875,291.9531 390.6563,292.2031 C391.1406,292.4844 391.3125,292.7031 391.4063,293.1094 C391.4688,293.5156 391.5,293.6406 391.6406,293.7656 C391.7813,293.9063 392.0156,294.0156 392.2344,294.0156 C392.5,294.0156 392.7656,293.875 392.9375,293.6563 C393.0469,293.5 393.0781,293.3125 393.0781,292.8906 L393.0781,291.4688 C393.0781,291.0313 393.0625,290.9063 392.9688,290.75 C392.8125,290.4844 392.5313,290.3438 392.2344,290.3438 C391.9375,290.3438 391.7344,290.4375 391.5156,290.75 L391.3438,290.6719 Z " fill="#000000"/><text fill="#000000" font-family="sans-serif" font-size="14" lengthAdjust="spacing" textLength="86" x="403" y="299.8467">Component</text><line style="stroke:#181818;stroke-width:0.5;" x1="375" x2="491" y1="311" y2="311"/><line style="stroke:#181818;stroke-width:0.5;" x1="375" x2="491" y1="319" y2="319"/><text fill="#000000" font-family="sans-serif" font-size="14" lengthAdjust="spacing" textLength="74" x="380" y="335.9951">_initialze()</text><text fill="#000000" font-family="sans-serif" font-size="14" lengthAdjust="spacing" textLength="76" x="380" y="352.292">_connect()</text><text fill="#000000" font-family="sans-serif" font-size="14" lengthAdjust="spacing" textLength="74" x="380" y="368.5889">_validate()</text><text fill="#000000" font-family="sans-serif" font-size="14" lengthAdjust="spacing" textLength="68" x="380" y="384.8857">_update()</text><text fill="#000000" font-family="sans-serif" font-size="14" lengthAdjust="spacing" textLength="69" x="380" y="401.1826">_finalize()</text></g><!--MD5=[ae4cdae1c7b883c8ab3cea1be149bff8]
class finam.Input--><g id="elem_finam.Input"><rect codeLine="36" fill="#F1F1F1" height="48" id="finam.Input" rx="2.5" ry="2.5" style="stroke:#181818;stroke-width:0.5;" width="70" x="269" y="319.5"/><ellipse cx="284" cy="335.5" fill="#ADD1B2" rx="11" ry="11" style="stroke:#181818;stroke-width:1.0;"/><path d="M286.3438,331.1719 C285.4063,330.7344 284.8125,330.5938 283.9375,330.5938 C281.3125,330.5938 279.3125,332.6719 279.3125,335.3906 L279.3125,336.5156 C279.3125,339.0938 281.4219,340.9844 284.3125,340.9844 C285.5313,340.9844 286.6875,340.6875 287.4375,340.1406 C288.0156,339.7344 288.3438,339.2813 288.3438,338.8906 C288.3438,338.4375 287.9531,338.0469 287.4844,338.0469 C287.2656,338.0469 287.0625,338.125 286.875,338.3125 C286.4219,338.7969 286.4219,338.7969 286.2344,338.8906 C285.8125,339.1563 285.125,339.2813 284.3594,339.2813 C282.3125,339.2813 281.0156,338.1875 281.0156,336.4844 L281.0156,335.3906 C281.0156,333.6094 282.2656,332.2969 284,332.2969 C284.5781,332.2969 285.1875,332.4531 285.6563,332.7031 C286.1406,332.9844 286.3125,333.2031 286.4063,333.6094 C286.4688,334.0156 286.5,334.1406 286.6406,334.2656 C286.7813,334.4063 287.0156,334.5156 287.2344,334.5156 C287.5,334.5156 287.7656,334.375 287.9375,334.1563 C288.0469,334 288.0781,333.8125 288.0781,333.3906 L288.0781,331.9688 C288.0781,331.5313 288.0625,331.4063 287.9688,331.25 C287.8125,330.9844 287.5313,330.8438 287.2344,330.8438 C286.9375,330.8438 286.7344,330.9375 286.5156,331.25 L286.3438,331.1719 Z " fill="#000000"/><text fill="#000000" font-family="sans-serif" font-size="14" lengthAdjust="spacing" textLength="38" x="298" y="340.3467">Input</text><line style="stroke:#181818;stroke-width:0.5;" x1="270" x2="338" y1="351.5" y2="351.5"/><line style="stroke:#181818;stroke-width:0.5;" x1="270" x2="338" y1="359.5" y2="359.5"/></g><!--MD5=[773e8c292b0c176c04697cfa0aa9f700]
class finam.Output--><g id="elem_finam.Output"><rect codeLine="38" fill="#F1F1F1" height="48" id="finam.Output" rx="2.5" ry="2.5" style="stroke:#181818;stroke-width:0.5;" width="83" x="22.5" y="319.5"/><ellipse cx="37.5" cy="335.5" fill="#ADD1B2" rx="11" ry="11" style="stroke:#181818;stroke-width:1.0;"/><path d="M39.8438,331.1719 C38.9063,330.7344 38.3125,330.5938 37.4375,330.5938 C34.8125,330.5938 32.8125,332.6719 32.8125,335.3906 L32.8125,336.5156 C32.8125,339.0938 34.9219,340.9844 37.8125,340.9844 C39.0313,340.9844 40.1875,340.6875 40.9375,340.1406 C41.5156,339.7344 41.8438,339.2813 41.8438,338.8906 C41.8438,338.4375 41.4531,338.0469 40.9844,338.0469 C40.7656,338.0469 40.5625,338.125 40.375,338.3125 C39.9219,338.7969 39.9219,338.7969 39.7344,338.8906 C39.3125,339.1563 38.625,339.2813 37.8594,339.2813 C35.8125,339.2813 34.5156,338.1875 34.5156,336.4844 L34.5156,335.3906 C34.5156,333.6094 35.7656,332.2969 37.5,332.2969 C38.0781,332.2969 38.6875,332.4531 39.1563,332.7031 C39.6406,332.9844 39.8125,333.2031 39.9063,333.6094 C39.9688,334.0156 40,334.1406 40.1406,334.2656 C40.2813,334.4063 40.5156,334.5156 40.7344,334.5156 C41,334.5156 41.2656,334.375 41.4375,334.1563 C41.5469,334 41.5781,333.8125 41.5781,333.3906 L41.5781,331.9688 C41.5781,331.5313 41.5625,331.4063 41.4688,331.25 C41.3125,330.9844 41.0313,330.8438 40.7344,330.8438 C40.4375,330.8438 40.2344,330.9375 40.0156,331.25 L39.8438,331.1719 Z " fill="#000000"/><text fill="#000000" font-family="sans-serif" font-size="14" lengthAdjust="spacing" textLength="51" x="51.5" y="340.3467">Output</text><line style="stroke:#181818;stroke-width:0.5;" x1="23.5" x2="104.5" y1="351.5" y2="351.5"/><line style="stroke:#181818;stroke-width:0.5;" x1="23.5" x2="104.5" y1="359.5" y2="359.5"/></g><!--MD5=[8ed5bfeec4cefcdc59b0f47370600d40]
reverse link finam.IAdapter to finam.Adapter--><g id="link_finam.IAdapter_finam.Adapter"><path codeLine="40" d="M187,387.578 C187,412.07 187,442.783 187,467.975 " fill="none" id="finam.IAdapter-backto-finam.Adapter" style="stroke:#181818;stroke-width:1.0;"/><polygon fill="none" points="180,387.562,187,367.562,194,387.562,180,387.562" style="stroke:#181818;stroke-width:1.0;"/></g><!--MD5=[2f443bd21c27494080e34252c5e542fc]
reverse link finam.Input to finam.Adapter--><g id="link_finam.Input_finam.Adapter"><path codeLine="41" d="M276.795,384.261 C259.696,409.253 237.541,441.632 219.517,467.975 " fill="none" id="finam.Input-backto-finam.Adapter" style="stroke:#181818;stroke-width:1.0;"/><polygon fill="none" points="271.15,380.115,288.221,367.562,282.704,388.021,271.15,380.115" style="stroke:#181818;stroke-width:1.0;"/></g><!--MD5=[13fab96d3d0b438bbe53d4802fd0843b]
reverse link finam.Output to finam.Adapter--><g id="link_finam.Output_finam.Adapter"><path codeLine="42" d="M92.339,383.898 C110.35,408.938 133.775,441.504 152.816,467.975 " fill="none" id="finam.Output-backto-finam.Adapter" style="stroke:#181818;stroke-width:1.0;"/><polygon fill="none" points="86.5843,387.885,80.5883,367.562,97.95,379.71,86.5843,387.885" style="stroke:#181818;stroke-width:1.0;"/></g><!--MD5=[89006457f2379e9e21f1399e9d305ff8]
reverse link finam.IInput to finam.IAdapter--><g id="link_finam.IInput_finam.IAdapter"><path codeLine="43" d="M263.557,180.582 C242.87,224.335 213.638,286.16 197.956,319.327 " fill="none" id="finam.IInput-backto-finam.IAdapter" style="stroke:#181818;stroke-width:1.0;"/><polygon fill="none" points="257.367,177.296,272.245,162.208,270.024,183.281,257.367,177.296" style="stroke:#181818;stroke-width:1.0;"/></g><!--MD5=[a7a8b7111482140410263a29d6a91d2e]
reverse link finam.IOutput to finam.IAdapter--><g id="link_finam.IOutput_finam.IAdapter"><path codeLine="44" d="M129.792,181.173 C145.294,224.89 167.074,286.31 178.783,319.327 " fill="none" id="finam.IOutput-backto-finam.IAdapter" style="stroke:#181818;stroke-width:1.0;"/><polygon fill="none" points="123.153,183.397,123.067,162.208,136.348,178.718,123.153,183.397" style="stroke:#181818;stroke-width:1.0;"/></g><!--MD5=[ea7015faef1fcab920141c39cca8fa5b]
reverse link finam.IComponent to finam.ITimeComponent--><g id="link_finam.IComponent_finam.ITimeComponent"><path codeLine="45" d="M521.73,228.877 C543.568,258.675 566.021,289.312 582.1,311.253 " fill="none" id="finam.IComponent-backto-finam.ITimeComponent" style="stroke:#181818;stroke-width:1.0;"/><polygon fill="none" points="515.882,232.738,509.705,212.469,527.174,224.463,515.882,232.738" style="stroke:#181818;stroke-width:1.0;"/></g><!--MD5=[e0941e41b1f65da96e311d850c7e1ab3]
reverse link finam.ITimeComponent to finam.TimeComponent--><g id="link_finam.ITimeComponent_finam.TimeComponent"><path codeLine="46" d="M580.217,393.777 C563.919,426.185 543.336,467.11 530.675,492.285 " fill="none" id="finam.ITimeComponent-backto-finam.TimeComponent" style="stroke:#181818;stroke-width:1.0;"/><polygon fill="none" points="573.987,390.587,589.226,375.864,586.494,396.877,573.987,390.587" style="stroke:#181818;stroke-width:1.0;"/></g><!--MD5=[196e1e45d2db546e55d525c822ca418c]
reverse link finam.Component to finam.TimeComponent--><g id="link_finam.Component_finam.TimeComponent"><path codeLine="47" d="M474.032,426.087 C486.236,450.354 498.653,475.042 507.337,492.31 " fill="none" id="finam.Component-backto-finam.TimeComponent" style="stroke:#181818;stroke-width:1.0;"/><polygon fill="none" points="467.756,429.187,465.023,408.174,480.263,422.897,467.756,429.187" style="stroke:#181818;stroke-width:1.0;"/></g><!--MD5=[a95afc3873d9b8482c20576abe053692]
reverse link finam.IComponent to finam.Component--><g id="link_finam.IComponent_finam.Component"><path codeLine="48" d="M441.274,239.563 C440.19,253.049 439.111,266.473 438.107,278.958 " fill="none" id="finam.IComponent-backto-finam.Component" style="stroke:#181818;stroke-width:1.0;"/><polygon fill="none" points="434.334,238.538,442.914,219.164,448.289,239.66,434.334,238.538" style="stroke:#181818;stroke-width:1.0;"/></g><!--MD5=[9773f20cead91def5114570ff21c0201]
reverse link finam.IInput to finam.Input--><g id="link_finam.IInput_finam.Input"><path codeLine="49" d="M291.128,182.361 C294.636,225.997 299.507,286.608 302.137,319.327 " fill="none" id="finam.IInput-backto-finam.Input" style="stroke:#181818;stroke-width:1.0;"/><polygon fill="none" points="284.133,182.704,289.508,162.208,298.088,181.582,284.133,182.704" style="stroke:#181818;stroke-width:1.0;"/></g><!--MD5=[d68772276d99f6959f8c1c2cf18699ab]
reverse link finam.IOutput to finam.Output--><g id="link_finam.IOutput_finam.Output"><path codeLine="50" d="M100.479,181.766 C90.566,225.444 76.7186,286.459 69.2591,319.327 " fill="none" id="finam.IOutput-backto-finam.Output" style="stroke:#181818;stroke-width:1.0;"/><polygon fill="none" points="93.665,180.162,104.917,162.208,107.317,183.261,93.665,180.162" style="stroke:#181818;stroke-width:1.0;"/></g><!--MD5=[69651dcef8916e6e9156097a910b4d64]
@startuml
class finam.Adapter {
  _get_data()
  _get_info()
  _source_updated()
}
abstract class finam.IAdapter {
}
abstract class finam.IComponent {
  inputs
  outputs
  status
  initialze()
  connect()
  validate()
  update()
  finalize()
}
abstract class finam.IInput {
  pull_data()
}
abstract class finam.IOutput {
  push_data()
}
abstract class finam.ITimeComponent {
  time
}
class finam.TimeComponent {
}
class finam.Component {
  _initialze()
  _connect()
  _validate()
  _update()
  _finalize()
}
class finam.Input {
}
class finam.Output {
}
finam.IAdapter <|- - finam.Adapter
finam.Input <|- - finam.Adapter
finam.Output <|- - finam.Adapter
finam.IInput <|- - finam.IAdapter
finam.IOutput <|- - finam.IAdapter
finam.IComponent <|- - finam.ITimeComponent
finam.ITimeComponent <|- - finam.TimeComponent
finam.Component <|- - finam.TimeComponent
finam.IComponent <|- - finam.Component
finam.IInput <|- - finam.Input
finam.IOutput <|- - finam.Output
@enduml

PlantUML version 1.2022.10beta2(Unknown compile time)
(GPL source distribution)
Java Runtime: Java(TM) SE Runtime Environment
JVM: Java HotSpot(TM) 64-Bit Server VM
Default Encoding: UTF-8
Language: en
Country: US
--></g></svg>