<?xml version="1.0" encoding="UTF-8"?>
<svg id="svg13102" width="706px" height="588px" style="height:588px;width:706px" contentStyleType="text/css" preserveAspectRatio="none" version="1.1" viewBox="0 0 706 588" xmlns="http://www.w3.org/2000/svg" zoomAndPan="magnify">
  <g id="g13100">
    <g id="cluster_finam">
      <path id="path12891" d="m8.5 6h48a3.75 3.75 0 0 1 2.5 2.5l7 19.797h630.5a2.5 2.5 0 0 1 2.5 2.5v547.7a2.5 2.5 0 0 1-2.5 2.5h-688a2.5 2.5 0 0 1-2.5-2.5v-570a2.5 2.5 0 0 1 2.5-2.5" fill="none" stroke="#000" stroke-width="1.5"/>
      <line id="line12893" x1="6" x2="66" y1="28.297" y2="28.297" stroke="#000" stroke-width="1.5"/>
      <text id="text12895" x="10" y="20.9951" fill="#000000" font-family="sans-serif" font-size="14" font-weight="bold" textLength="47">finam</text>
    </g>
    <g id="elem_finam.Adapter">
      <rect id="finam.Adapter" x="115.5" y="468" width="143" height="96.891" rx="2.5" ry="2.5" fill="#F1F1F1" stroke="#181818" stroke-width=".5" codeLine="1"/>
      <ellipse id="ellipse12899" cx="153.9" cy="484" rx="11" ry="11" fill="#ADD1B2" stroke="#181818"/>
      <path id="path12901" d="m156.24 479.67c-0.9375-0.4375-1.5313-0.5781-2.4063-0.5781-2.625 0-4.625 2.0781-4.625 4.7968v1.125c0 2.5782 2.1094 4.4688 5 4.4688 1.2188 0 2.375-0.2969 3.125-0.8438 0.5781-0.4062 0.9063-0.8593 0.9063-1.25 0-0.4531-0.3907-0.8437-0.8594-0.8437-0.2188 0-0.4219 0.0781-0.6094 0.2656-0.4531 0.4844-0.4531 0.4844-0.6406 0.5781-0.4219 0.2657-1.1094 0.3907-1.875 0.3907-2.0469 0-3.3438-1.0938-3.3438-2.7969v-1.0938c0-1.7812 1.25-3.0937 2.9844-3.0937 0.5781 0 1.1875 0.1562 1.6563 0.4062 0.4843 0.2813 0.6562 0.5 0.75 0.9063 0.0625 0.4062 0.0937 0.5312 0.2343 0.6562 0.1407 0.1407 0.375 0.25 0.5938 0.25 0.2656 0 0.5312-0.1406 0.7031-0.3593 0.1094-0.1563 0.1406-0.3438 0.1406-0.7657v-1.4218c0-0.4375-0.0156-0.5625-0.1093-0.7188-0.1563-0.2656-0.4375-0.4062-0.7344-0.4062s-0.5 0.0937-0.7188 0.4062l-0.1718-0.0781z"/>
      <text id="text12903" x="173.1" y="488.8467" fill="#000000" font-family="sans-serif" font-size="14" textLength="59">Adapter</text>
      <line id="line12905" x1="116.5" x2="257.5" y1="500" y2="500" stroke="#181818" stroke-width=".5"/>
      <line id="line12907" x1="116.5" x2="257.5" y1="508" y2="508" stroke="#181818" stroke-width=".5"/>
      <g fill="#000000" font-family="sans-serif" font-size="14">
        <text id="text12909" x="121.5" y="524.9951" textLength="81">_get_data()</text>
        <text id="text12911" x="121.5" y="541.292" textLength="77">_get_info()</text>
        <text id="text12913" x="121.5" y="557.5889" textLength="131">_source_updated()</text>
      </g>
    </g>
    <g id="elem_finam.IAdapter">
      <rect id="finam.IAdapter" x="140.5" y="319.5" width="93" height="48" rx="2.5" ry="2.5" fill="#F1F1F1" stroke="#181818" stroke-width=".5" codeLine="6"/>
      <ellipse id="ellipse12917" cx="155.5" cy="335.5" rx="11" ry="11" fill="#A9DCDF" stroke="#181818"/>
      <path id="path12919" d="m157.58 337.31 0.3907 0.9844h-0.3907c-0.4531 0-0.5625 0.0156-0.7187 0.125-0.25 0.1562-0.4063 0.4375-0.4063 0.7344 0 0.2656 0.1407 0.5156 0.3594 0.6718 0.1406 0.125 0.3438 0.1719 0.7656 0.1719h2.3594c0.3594 0 0.5781-0.0312 0.7188-0.125 0.25-0.1406 0.4062-0.4375 0.4062-0.7187 0-0.2813-0.1406-0.5313-0.3594-0.6875-0.1718-0.1407-0.3281-0.1719-0.7968-0.1719l-3.3907-8.2031h-3.6718c-0.4532 0-0.5782 0.0156-0.7344 0.1093-0.25 0.1719-0.4063 0.4532-0.4063 0.7344 0 0.2813 0.1407 0.5313 0.3594 0.7031 0.1719 0.1094 0.3438 0.1407 0.7813 0.1407h1.0781l-2.6406 6.5156c-0.4219 0-0.5782 0.0156-0.7344 0.125-0.25 0.1562-0.4063 0.4375-0.4063 0.7344 0 0.5625 0.375 0.8437 1.125 0.8437h2.2657c0.3593 0 0.5781-0.0312 0.7031-0.125 0.2656-0.1406 0.4062-0.4375 0.4062-0.7187 0-0.2813-0.125-0.5313-0.3437-0.7032-0.1719-0.125-0.3125-0.1562-0.7656-0.1562h-0.3907l0.3907-0.9844h4.0468zm-0.7031-1.7031h-2.6719l1.3438-3.2656 1.3281 3.2656z"/>
      <text id="text12921" x="169.5" y="340.3467" fill="#000000" font-family="sans-serif" font-size="14" font-style="italic" textLength="61">IAdapter</text>
      <line id="line12923" x1="141.5" x2="232.5" y1="351.5" y2="351.5" stroke="#181818" stroke-width=".5"/>
      <line id="line12925" x1="141.5" x2="232.5" y1="359.5" y2="359.5" stroke="#181818" stroke-width=".5"/>
    </g>
    <g id="elem_finam.IComponent">
      <rect id="finam.IComponent" x="390.5" y="41" width="119" height="178.38" rx="2.5" ry="2.5" fill="#F1F1F1" stroke="#181818" stroke-width=".5" codeLine="8"/>
      <ellipse id="ellipse12929" cx="405.5" cy="57" rx="11" ry="11" fill="#A9DCDF" stroke="#181818"/>
      <path id="path12931" d="m407.58 58.812 0.3907 0.9844h-0.3907c-0.4531 0-0.5625 0.0156-0.7187 0.125-0.25 0.1562-0.4063 0.4375-0.4063 0.7344 0 0.2656 0.1407 0.5156 0.3594 0.6718 0.1406 0.125 0.3438 0.1719 0.7656 0.1719h2.3594c0.3594 0 0.5781-0.0312 0.7188-0.125 0.25-0.1406 0.4062-0.4375 0.4062-0.7187 0-0.2813-0.1406-0.5313-0.3594-0.6875-0.1718-0.1407-0.3281-0.1719-0.7968-0.1719l-3.3907-8.2031h-3.6718c-0.4532 0-0.5782 0.0156-0.7344 0.1093-0.25 0.1719-0.4063 0.4532-0.4063 0.7344 0 0.2813 0.1407 0.5313 0.3594 0.7031 0.1719 0.1094 0.3438 0.1407 0.7813 0.1407h1.0781l-2.6406 6.5156c-0.4219 0-0.5782 0.0156-0.7344 0.125-0.25 0.1562-0.4063 0.4375-0.4063 0.7344 0 0.5625 0.375 0.8437 1.125 0.8437h2.2657c0.3593 0 0.5781-0.0312 0.7031-0.125 0.2656-0.1406 0.4062-0.4375 0.4062-0.7187 0-0.2813-0.125-0.5313-0.3437-0.7032-0.1719-0.125-0.3125-0.1562-0.7656-0.1562h-0.3907l0.3907-0.9844h4.0468zm-0.7031-1.7031h-2.6719l1.3438-3.2656 1.3281 3.2656z"/>
      <text id="text12933" x="419.5" y="61.8467" fill="#000000" font-family="sans-serif" font-size="14" font-style="italic" textLength="87">IComponent</text>
      <line id="line12935" x1="391.5" x2="508.5" y1="73" y2="73" stroke="#181818" stroke-width=".5"/>
      <g fill="#000000" font-family="sans-serif" font-size="14">
        <text id="text12937" x="396.5" y="89.9951" textLength="45">inputs</text>
        <text id="text12939" x="396.5" y="106.292" textLength="56">outputs</text>
        <text id="text12941" x="396.5" y="122.5889" textLength="44">status</text>
      </g>
      <line id="line12943" x1="391.5" x2="508.5" y1="129.89" y2="129.89" stroke="#181818" stroke-width=".5"/>
      <g fill="#000000" font-family="sans-serif" font-size="14">
        <text id="text12945" x="396.5" y="146.8857" textLength="67">initialze()</text>
        <text id="text12947" x="396.5" y="163.1826" textLength="69">connect()</text>
        <text id="text12949" x="396.5" y="179.4795" textLength="67">validate()</text>
        <text id="text12951" x="396.5" y="195.7764" textLength="61">update()</text>
        <text id="text12953" x="396.5" y="212.0732" textLength="62">finalize()</text>
      </g>
    </g>
    <g id="elem_finam.IInput">
      <rect id="finam.IInput" x="243.5" y="98" width="87" height="64.297" rx="2.5" ry="2.5" fill="#F1F1F1" stroke="#181818" stroke-width=".5" codeLine="18"/>
      <ellipse id="ellipse12957" cx="265.25" cy="114" rx="11" ry="11" fill="#A9DCDF" stroke="#181818"/>
      <path id="path12959" d="m267.33 115.81 0.3907 0.9844h-0.3907c-0.4531 0-0.5625 0.0156-0.7187 0.125-0.25 0.1562-0.4063 0.4375-0.4063 0.7344 0 0.2656 0.1407 0.5156 0.3594 0.6718 0.1406 0.125 0.3438 0.1719 0.7656 0.1719h2.3594c0.3594 0 0.5781-0.0312 0.7188-0.125 0.25-0.1406 0.4062-0.4375 0.4062-0.7187 0-0.2813-0.1406-0.5313-0.3594-0.6875-0.1718-0.1407-0.3281-0.1719-0.7968-0.1719l-3.3907-8.2031h-3.6718c-0.4532 0-0.5782 0.0156-0.7344 0.1093-0.25 0.1719-0.4063 0.4532-0.4063 0.7344 0 0.2813 0.1407 0.5313 0.3594 0.7031 0.1719 0.1094 0.3438 0.1407 0.7813 0.1407h1.0781l-2.6406 6.5156c-0.4219 0-0.5782 0.0156-0.7344 0.125-0.25 0.1562-0.4063 0.4375-0.4063 0.7344 0 0.5625 0.375 0.8437 1.125 0.8437h2.2657c0.3593 0 0.5781-0.0312 0.7031-0.125 0.2656-0.1406 0.4062-0.4375 0.4062-0.7187 0-0.2813-0.125-0.5313-0.3437-0.7032-0.1719-0.125-0.3125-0.1562-0.7656-0.1562h-0.3907l0.3907-0.9844h4.0468zm-0.7031-1.7031h-2.6719l1.3438-3.2656 1.3281 3.2656z"/>
      <text id="text12961" x="280.75" y="118.8467" fill="#000000" font-family="sans-serif" font-size="14" font-style="italic" textLength="40">IInput</text>
      <line id="line12963" x1="244.5" x2="329.5" y1="130" y2="130" stroke="#181818" stroke-width=".5"/>
      <line id="line12965" x1="244.5" x2="329.5" y1="138" y2="138" stroke="#181818" stroke-width=".5"/>
      <text id="text12967" x="249.5" y="154.9951" fill="#000000" font-family="sans-serif" font-size="14" textLength="75">pull_data()</text>
    </g>
    <g id="elem_finam.IOutput">
      <rect id="finam.IOutput" x="64.5" y="98" width="95" height="64.297" rx="2.5" ry="2.5" fill="#F1F1F1" stroke="#181818" stroke-width=".5" codeLine="21"/>
      <ellipse id="ellipse12971" cx="84.45" cy="114" rx="11" ry="11" fill="#A9DCDF" stroke="#181818"/>
      <path id="path12973" d="m86.528 115.81 0.3907 0.9844h-0.3907c-0.4531 0-0.5625 0.0156-0.7187 0.125-0.25 0.1562-0.4063 0.4375-0.4063 0.7344 0 0.2656 0.1407 0.5156 0.3594 0.6718 0.1406 0.125 0.3438 0.1719 0.7656 0.1719h2.3594c0.3594 0 0.5781-0.0312 0.7188-0.125 0.25-0.1406 0.4062-0.4375 0.4062-0.7187 0-0.2813-0.1406-0.5313-0.3594-0.6875-0.1718-0.1407-0.3281-0.1719-0.7968-0.1719l-3.3907-8.2031h-3.6718c-0.4532 0-0.5782 0.0156-0.7344 0.1093-0.25 0.1719-0.4063 0.4532-0.4063 0.7344 0 0.2813 0.1407 0.5313 0.3594 0.7031 0.1719 0.1094 0.3438 0.1407 0.7813 0.1407h1.0781l-2.6406 6.5156c-0.4219 0-0.5782 0.0156-0.7344 0.125-0.25 0.1562-0.4063 0.4375-0.4063 0.7344 0 0.5625 0.375 0.8437 1.125 0.8437h2.2657c0.3593 0 0.5781-0.0312 0.7031-0.125 0.2656-0.1406 0.4062-0.4375 0.4062-0.7187 0-0.2813-0.125-0.5313-0.3437-0.7032-0.1719-0.125-0.3125-0.1562-0.7656-0.1562h-0.3907l0.3907-0.9844h4.0468zm-0.7031-1.7031h-2.6719l1.3438-3.2656 1.3281 3.2656z"/>
      <text id="text12975" x="99.55" y="118.8467" fill="#000000" font-family="sans-serif" font-size="14" font-style="italic" textLength="52">IOutput</text>
      <line id="line12977" x1="65.5" x2="158.5" y1="130" y2="130" stroke="#181818" stroke-width=".5"/>
      <line id="line12979" x1="65.5" x2="158.5" y1="138" y2="138" stroke="#181818" stroke-width=".5"/>
      <text id="text12981" x="70.5" y="154.9951" fill="#000000" font-family="sans-serif" font-size="14" textLength="83">push_data()</text>
    </g>
    <g id="elem_finam.ITimeComponent">
      <rect id="finam.ITimeComponent" x="527.5" y="311.5" width="155" height="64.297" rx="2.5" ry="2.5" fill="#F1F1F1" stroke="#181818" stroke-width=".5" codeLine="24"/>
      <ellipse id="ellipse12985" cx="542.5" cy="327.5" rx="11" ry="11" fill="#A9DCDF" stroke="#181818"/>
      <path id="path12987" d="m544.58 329.31 0.3907 0.9844h-0.3907c-0.4531 0-0.5625 0.0156-0.7187 0.125-0.25 0.1562-0.4063 0.4375-0.4063 0.7344 0 0.2656 0.1407 0.5156 0.3594 0.6718 0.1406 0.125 0.3438 0.1719 0.7656 0.1719h2.3594c0.3594 0 0.5781-0.0312 0.7188-0.125 0.25-0.1406 0.4062-0.4375 0.4062-0.7187 0-0.2813-0.1406-0.5313-0.3594-0.6875-0.1718-0.1407-0.3281-0.1719-0.7968-0.1719l-3.3907-8.2031h-3.6718c-0.4532 0-0.5782 0.0156-0.7344 0.1093-0.25 0.1719-0.4063 0.4532-0.4063 0.7344 0 0.2813 0.1407 0.5313 0.3594 0.7031 0.1719 0.1094 0.3438 0.1407 0.7813 0.1407h1.0781l-2.6406 6.5156c-0.4219 0-0.5782 0.0156-0.7344 0.125-0.25 0.1562-0.4063 0.4375-0.4063 0.7344 0 0.5625 0.375 0.8437 1.125 0.8437h2.2657c0.3593 0 0.5781-0.0312 0.7031-0.125 0.2656-0.1406 0.4062-0.4375 0.4062-0.7187 0-0.2813-0.125-0.5313-0.3437-0.7032-0.1719-0.125-0.3125-0.1562-0.7656-0.1562h-0.3907l0.3907-0.9844h4.0468zm-0.7031-1.7031h-2.6719l1.3438-3.2656 1.3281 3.2656z"/>
      <text id="text12989" x="556.5" y="332.3467" fill="#000000" font-family="sans-serif" font-size="14" font-style="italic" textLength="123">ITimeComponent</text>
      <line id="line12991" x1="528.5" x2="681.5" y1="343.5" y2="343.5" stroke="#181818" stroke-width=".5"/>
      <text id="text12993" x="533.5" y="360.4951" fill="#000000" font-family="sans-serif" font-size="14" textLength="34">time</text>
      <line id="line12995" x1="528.5" x2="681.5" y1="367.8" y2="367.8" stroke="#181818" stroke-width=".5"/>
    </g>
    <g id="elem_finam.TimeComponent">
      <rect id="finam.TimeComponent" x="442" y="492.5" width="154" height="48" rx="2.5" ry="2.5" fill="#F1F1F1" stroke="#181818" stroke-width=".5" codeLine="27"/>
      <ellipse id="ellipse12999" cx="457" cy="508.5" rx="11" ry="11" fill="#ADD1B2" stroke="#181818"/>
      <path id="path13001" d="m459.34 504.17c-0.9375-0.4375-1.5313-0.5781-2.4063-0.5781-2.625 0-4.625 2.0781-4.625 4.7968v1.125c0 2.5782 2.1094 4.4688 5 4.4688 1.2188 0 2.375-0.2969 3.125-0.8438 0.5781-0.4062 0.9063-0.8593 0.9063-1.25 0-0.4531-0.3907-0.8437-0.8594-0.8437-0.2188 0-0.4219 0.0781-0.6094 0.2656-0.4531 0.4844-0.4531 0.4844-0.6406 0.5781-0.4219 0.2657-1.1094 0.3907-1.875 0.3907-2.0469 0-3.3438-1.0938-3.3438-2.7969v-1.0938c0-1.7812 1.25-3.0937 2.9844-3.0937 0.5781 0 1.1875 0.1562 1.6563 0.4062 0.4843 0.2813 0.6562 0.5 0.75 0.9063 0.0625 0.4062 0.0937 0.5312 0.2343 0.6562 0.1407 0.1407 0.375 0.25 0.5938 0.25 0.2656 0 0.5312-0.1406 0.7031-0.3593 0.1094-0.1563 0.1406-0.3438 0.1406-0.7657v-1.4218c0-0.4375-0.0156-0.5625-0.1093-0.7188-0.1563-0.2656-0.4375-0.4062-0.7344-0.4062s-0.5 0.0937-0.7188 0.4062l-0.1718-0.0781z"/>
      <text id="text13003" x="471" y="513.3467" fill="#000000" font-family="sans-serif" font-size="14" textLength="122">TimeComponent</text>
      <line id="line13005" x1="443" x2="595" y1="524.5" y2="524.5" stroke="#181818" stroke-width=".5"/>
      <line id="line13007" x1="443" x2="595" y1="532.5" y2="532.5" stroke="#181818" stroke-width=".5"/>
    </g>
    <g id="elem_finam.Component">
      <rect id="finam.Component" x="374" y="279" width="118" height="129.48" rx="2.5" ry="2.5" fill="#F1F1F1" stroke="#181818" stroke-width=".5" codeLine="29"/>
      <ellipse id="ellipse13011" cx="389" cy="295" rx="11" ry="11" fill="#ADD1B2" stroke="#181818"/>
      <path id="path13013" d="m391.34 290.67c-0.9375-0.4375-1.5313-0.5781-2.4063-0.5781-2.625 0-4.625 2.0781-4.625 4.7968v1.125c0 2.5782 2.1094 4.4688 5 4.4688 1.2188 0 2.375-0.2969 3.125-0.8438 0.5781-0.4062 0.9063-0.8593 0.9063-1.25 0-0.4531-0.3907-0.8437-0.8594-0.8437-0.2188 0-0.4219 0.0781-0.6094 0.2656-0.4531 0.4844-0.4531 0.4844-0.6406 0.5781-0.4219 0.2657-1.1094 0.3907-1.875 0.3907-2.0469 0-3.3438-1.0938-3.3438-2.7969v-1.0938c0-1.7812 1.25-3.0937 2.9844-3.0937 0.5781 0 1.1875 0.1562 1.6563 0.4062 0.4843 0.2813 0.6562 0.5 0.75 0.9063 0.0625 0.4062 0.0937 0.5312 0.2343 0.6562 0.1407 0.1407 0.375 0.25 0.5938 0.25 0.2656 0 0.5312-0.1406 0.7031-0.3593 0.1094-0.1563 0.1406-0.3438 0.1406-0.7657v-1.4218c0-0.4375-0.0156-0.5625-0.1093-0.7188-0.1563-0.2656-0.4375-0.4062-0.7344-0.4062s-0.5 0.0937-0.7188 0.4062l-0.1718-0.0781z"/>
      <text id="text13015" x="403" y="299.8467" fill="#000000" font-family="sans-serif" font-size="14" textLength="86">Component</text>
      <line id="line13017" x1="375" x2="491" y1="311" y2="311" stroke="#181818" stroke-width=".5"/>
      <line id="line13019" x1="375" x2="491" y1="319" y2="319" stroke="#181818" stroke-width=".5"/>
      <g fill="#000000" font-family="sans-serif" font-size="14">
        <text id="text13021" x="380" y="335.9951" textLength="74">_initialze()</text>
        <text id="text13023" x="380" y="352.292" textLength="76">_connect()</text>
        <text id="text13025" x="380" y="368.5889" textLength="74">_validate()</text>
        <text id="text13027" x="380" y="384.8857" textLength="68">_update()</text>
        <text id="text13029" x="380" y="401.1826" textLength="69">_finalize()</text>
      </g>
    </g>
    <g id="elem_finam.Input">
      <rect id="finam.Input" x="269" y="319.5" width="70" height="48" rx="2.5" ry="2.5" fill="#F1F1F1" stroke="#181818" stroke-width=".5" codeLine="36"/>
      <ellipse id="ellipse13033" cx="284" cy="335.5" rx="11" ry="11" fill="#ADD1B2" stroke="#181818"/>
      <path id="path13035" d="m286.34 331.17c-0.9375-0.4375-1.5313-0.5781-2.4063-0.5781-2.625 0-4.625 2.0781-4.625 4.7968v1.125c0 2.5782 2.1094 4.4688 5 4.4688 1.2188 0 2.375-0.2969 3.125-0.8438 0.5781-0.4062 0.9063-0.8593 0.9063-1.25 0-0.4531-0.3907-0.8437-0.8594-0.8437-0.2188 0-0.4219 0.0781-0.6094 0.2656-0.4531 0.4844-0.4531 0.4844-0.6406 0.5781-0.4219 0.2657-1.1094 0.3907-1.875 0.3907-2.0469 0-3.3438-1.0938-3.3438-2.7969v-1.0938c0-1.7812 1.25-3.0937 2.9844-3.0937 0.5781 0 1.1875 0.1562 1.6563 0.4062 0.4843 0.2813 0.6562 0.5 0.75 0.9063 0.0625 0.4062 0.0937 0.5312 0.2343 0.6562 0.1407 0.1407 0.375 0.25 0.5938 0.25 0.2656 0 0.5312-0.1406 0.7031-0.3593 0.1094-0.1563 0.1406-0.3438 0.1406-0.7657v-1.4218c0-0.4375-0.0156-0.5625-0.1093-0.7188-0.1563-0.2656-0.4375-0.4062-0.7344-0.4062s-0.5 0.0937-0.7188 0.4062l-0.1718-0.0781z"/>
      <text id="text13037" x="298" y="340.3467" fill="#000000" font-family="sans-serif" font-size="14" textLength="38">Input</text>
      <line id="line13039" x1="270" x2="338" y1="351.5" y2="351.5" stroke="#181818" stroke-width=".5"/>
      <line id="line13041" x1="270" x2="338" y1="359.5" y2="359.5" stroke="#181818" stroke-width=".5"/>
    </g>
    <g id="elem_finam.Output">
      <rect id="finam.Output" x="22.5" y="319.5" width="83" height="48" rx="2.5" ry="2.5" fill="#F1F1F1" stroke="#181818" stroke-width=".5" codeLine="38"/>
      <ellipse id="ellipse13045" cx="37.5" cy="335.5" rx="11" ry="11" fill="#ADD1B2" stroke="#181818"/>
      <path id="path13047" d="m39.844 331.17c-0.9375-0.4375-1.5313-0.5781-2.4063-0.5781-2.625 0-4.625 2.0781-4.625 4.7968v1.125c0 2.5782 2.1094 4.4688 5 4.4688 1.2188 0 2.375-0.2969 3.125-0.8438 0.5781-0.4062 0.9063-0.8593 0.9063-1.25 0-0.4531-0.3907-0.8437-0.8594-0.8437-0.2188 0-0.4219 0.0781-0.6094 0.2656-0.4531 0.4844-0.4531 0.4844-0.6406 0.5781-0.4219 0.2657-1.1094 0.3907-1.875 0.3907-2.0469 0-3.3438-1.0938-3.3438-2.7969v-1.0938c0-1.7812 1.25-3.0937 2.9844-3.0937 0.5781 0 1.1875 0.1562 1.6563 0.4062 0.4843 0.2813 0.6562 0.5 0.75 0.9063 0.0625 0.4062 0.0937 0.5312 0.2343 0.6562 0.1407 0.1407 0.375 0.25 0.5938 0.25 0.2656 0 0.5312-0.1406 0.7031-0.3593 0.1094-0.1563 0.1406-0.3438 0.1406-0.7657v-1.4218c0-0.4375-0.0156-0.5625-0.1093-0.7188-0.1563-0.2656-0.4375-0.4062-0.7344-0.4062s-0.5 0.0937-0.7188 0.4062l-0.1718-0.0781z"/>
      <text id="text13049" x="51.5" y="340.3467" fill="#000000" font-family="sans-serif" font-size="14" textLength="51">Output</text>
      <line id="line13051" x1="23.5" x2="104.5" y1="351.5" y2="351.5" stroke="#181818" stroke-width=".5"/>
      <line id="line13053" x1="23.5" x2="104.5" y1="359.5" y2="359.5" stroke="#181818" stroke-width=".5"/>
    </g>
    <g id="link_finam.IAdapter_finam.Adapter" fill="none" stroke="#181818">
      <path id="finam.IAdapter-backto-finam.Adapter" d="m187 387.58v80.397" codeLine="40"/>
      <polygon id="polygon13057" points="180 387.56 187 367.56 194 387.56"/>
    </g>
    <g id="link_finam.Input_finam.Adapter" fill="none" stroke="#181818">
      <path id="finam.Input-backto-finam.Adapter" d="m276.8 384.26c-17.099 24.992-39.254 57.371-57.278 83.714" codeLine="41"/>
      <polygon id="polygon13061" points="271.15 380.12 288.22 367.56 282.7 388.02"/>
    </g>
    <g id="link_finam.Output_finam.Adapter" fill="none" stroke="#181818">
      <path id="finam.Output-backto-finam.Adapter" d="m92.339 383.9c18.011 25.04 41.436 57.606 60.477 84.077" codeLine="42"/>
      <polygon id="polygon13065" points="86.584 387.88 80.588 367.56 97.95 379.71"/>
    </g>
    <g id="link_finam.IInput_finam.IAdapter" fill="none" stroke="#181818">
      <path id="finam.IInput-backto-finam.IAdapter" d="m263.56 180.58c-20.687 43.753-49.919 105.58-65.601 138.74" codeLine="43"/>
      <polygon id="polygon13069" points="257.37 177.3 272.24 162.21 270.02 183.28"/>
    </g>
    <g id="link_finam.IOutput_finam.IAdapter" fill="none" stroke="#181818">
      <path id="finam.IOutput-backto-finam.IAdapter" d="m129.79 181.17c15.502 43.717 37.282 105.14 48.991 138.15" codeLine="44"/>
      <polygon id="polygon13073" points="123.15 183.4 123.07 162.21 136.35 178.72"/>
    </g>
    <g id="link_finam.IComponent_finam.ITimeComponent" fill="none" stroke="#181818">
      <path id="finam.IComponent-backto-finam.ITimeComponent" d="m521.73 228.88c21.838 29.798 44.291 60.435 60.37 82.376" codeLine="45"/>
      <polygon id="polygon13077" points="515.88 232.74 509.7 212.47 527.17 224.46"/>
    </g>
    <g id="link_finam.ITimeComponent_finam.TimeComponent" fill="none" stroke="#181818">
      <path id="finam.ITimeComponent-backto-finam.TimeComponent" d="m580.22 393.78c-16.298 32.408-36.881 73.333-49.542 98.508" codeLine="46"/>
      <polygon id="polygon13081" points="573.99 390.59 589.23 375.86 586.49 396.88"/>
    </g>
    <g id="link_finam.Component_finam.TimeComponent" fill="none" stroke="#181818">
      <path id="finam.Component-backto-finam.TimeComponent" d="m474.03 426.09c12.204 24.267 24.621 48.955 33.305 66.223" codeLine="47"/>
      <polygon id="polygon13085" points="467.76 429.19 465.02 408.17 480.26 422.9"/>
    </g>
    <g id="link_finam.IComponent_finam.Component" fill="none" stroke="#181818">
      <path id="finam.IComponent-backto-finam.Component" d="m441.27 239.56c-1.084 13.486-2.163 26.91-3.167 39.395" codeLine="48"/>
      <polygon id="polygon13089" points="434.33 238.54 442.91 219.16 448.29 239.66"/>
    </g>
    <g id="link_finam.IInput_finam.Input" fill="none" stroke="#181818">
      <path id="finam.IInput-backto-finam.Input" d="m291.13 182.36c3.508 43.636 8.379 104.25 11.009 136.97" codeLine="49"/>
      <polygon id="polygon13093" points="284.13 182.7 289.51 162.21 298.09 181.58"/>
    </g>
    <g id="link_finam.IOutput_finam.Output" fill="none" stroke="#181818">
      <path id="finam.IOutput-backto-finam.Output" d="m100.48 181.77c-9.913 43.678-23.76 104.69-31.22 137.56" codeLine="50"/>
      <polygon id="polygon13097" points="93.665 180.16 104.92 162.21 107.32 183.26"/>
    </g>
  </g>
</svg>
