<?xml version="1.0" encoding="UTF-8"?>
<svg id="svg153" width="390" height="540" contentStyleType="text/css" preserveAspectRatio="none" version="1.1" viewBox="0 0 390 540" xmlns="http://www.w3.org/2000/svg" zoomAndPan="magnify">
  <rect id="rect3985" x="5.9417" y="6.9026" width="377.12" height="524.2" rx="2.0146" ry="2.0146" fill="#171717" stop-color="#000000" stroke-linejoin="round" stroke-width="3"/>
  <rect id="finam.GridBase" x="161.5" y="23" width="97" height="48" rx="2.5" ry="2.5" fill="#262626" stroke="#fff" stroke-width=".5" codeLine="7"/>
  <circle id="ellipse48" cx="176.5" cy="39" r="11" fill="#a9dcdf" stroke="#fff"/>
  <path id="path50" d="m178.58 40.812 0.3907 0.9844h-0.3907c-0.4531 0-0.5625 0.0156-0.7187 0.125-0.25 0.1562-0.4063 0.4375-0.4063 0.7344 0 0.2656 0.1407 0.5156 0.3594 0.6718 0.1406 0.125 0.3438 0.1719 0.7656 0.1719h2.3594c0.3594 0 0.5781-0.0312 0.7188-0.125 0.25-0.1406 0.4062-0.4375 0.4062-0.7187 0-0.2813-0.1406-0.5313-0.3594-0.6875-0.1718-0.1407-0.3281-0.1719-0.7968-0.1719l-3.3907-8.2031h-3.6718c-0.4532 0-0.5782 0.0156-0.7344 0.1093-0.25 0.1719-0.4063 0.4532-0.4063 0.7344 0 0.2813 0.1407 0.5313 0.3594 0.7031 0.1719 0.1094 0.3438 0.1407 0.7813 0.1407h1.0781l-2.6406 6.5156c-0.4219 0-0.5782 0.0156-0.7344 0.125-0.25 0.1562-0.4063 0.4375-0.4063 0.7344 0 0.5625 0.375 0.8437 1.125 0.8437h2.2657c0.3593 0 0.5781-0.0312 0.7031-0.125 0.2656-0.1406 0.4062-0.4375 0.4062-0.7187 0-0.2813-0.125-0.5313-0.3437-0.7032-0.1719-0.125-0.3125-0.1562-0.7656-0.1562h-0.3907l0.3907-0.9844zm-0.7031-1.7031h-2.6719l1.3438-3.2656z"/>
  <text id="text52" transform="translate(0,-18)" x="190.5" y="61.846699" fill="#ffffff" font-family="sans-serif" font-size="14px" font-style="italic" textLength="65">GridBase</text>
  <line id="line54" x1="162.5" x2="257.5" y1="55" y2="55" stroke="#e5e5e5" stroke-width=".5"/>
  <line id="line56" x1="162.5" x2="257.5" y1="63" y2="63" stroke="#e5e5e5" stroke-width=".5"/>
  <g fill="none">
    <g stroke="#e5e5e5">
      <path id="finam.GridBase-backto-finam.NoGrid" d="m235.94 85.462c11.243 11.139 23.43 23.216 33.151 32.849" codeLine="17"/>
      <polygon id="polygon120" transform="rotate(-18.266 166.17 80.708)" points="224.56 110 221.72 89 237.03 103.64"/>
      <path id="finam.GridBase-backto-finam.Grid" d="m184.91 86.084-31.461 34.231" codeLine="20"/>
      <polygon id="polygon132" transform="rotate(16.02 261.82 80.459)" points="195.82 110.02 183.29 103.76 198.5 89"/>
    </g>
    <path id="path4" d="m65.96 6.903h314.6c1.3811 1e-6 2.5008 0.95182 2.5008 2.126v520.18c0 1.1741-1.1196 2.126-2.5008 2.126h-372.11c-1.3811 0-2.5008-0.95183-2.5008-2.126l1e-7 -522.31" stroke="#fff" stroke-width="1.3835"/>
  </g>
  <g stroke="#fff">
    <line id="line6" x1="5.9417" x2="65.96" y1="6.903" y2="6.903" stroke-width="1.3835"/>
    <rect id="finam.Grid" x="126" y="113" width="62" height="48" rx="2.5" ry="2.5" fill="#262626" stroke-width=".5" codeLine="5"/>
    <circle id="ellipse36" cx="141" cy="129" r="11" fill="#a9dcdf"/>
  </g>
  <path id="path38" d="m143.08 130.81 0.3907 0.9844h-0.3907c-0.4531 0-0.5625 0.0156-0.7187 0.125-0.25 0.1562-0.4063 0.4375-0.4063 0.7344 0 0.2656 0.1407 0.5156 0.3594 0.6718 0.1406 0.125 0.3438 0.1719 0.7656 0.1719h2.3594c0.3594 0 0.5781-0.0312 0.7188-0.125 0.25-0.1406 0.4062-0.4375 0.4062-0.7187 0-0.2813-0.1406-0.5313-0.3594-0.6875-0.1718-0.1407-0.3281-0.1719-0.7968-0.1719l-3.3907-8.2031h-3.6718c-0.4532 0-0.5782 0.0156-0.7344 0.1093-0.25 0.1719-0.4063 0.4532-0.4063 0.7344 0 0.2813 0.1407 0.5313 0.3594 0.7031 0.1719 0.1094 0.3438 0.1407 0.7813 0.1407h1.0781l-2.6406 6.5156c-0.4219 0-0.5782 0.0156-0.7344 0.125-0.25 0.1562-0.4063 0.4375-0.4063 0.7344 0 0.5625 0.375 0.8437 1.125 0.8437h2.2657c0.3593 0 0.5781-0.0312 0.7031-0.125 0.2656-0.1406 0.4062-0.4375 0.4062-0.7187 0-0.2813-0.125-0.5313-0.3437-0.7032-0.1719-0.125-0.3125-0.1562-0.7656-0.1562h-0.3907l0.3907-0.9844zm-0.7031-1.7031h-2.6719l1.3438-3.2656z"/>
  <text id="text40" transform="translate(0,-36)" x="155" y="169.84669" fill="#ffffff" font-family="sans-serif" font-size="14px" font-style="italic" textLength="30">Grid</text>
  <g>
    <g stroke-width=".5">
      <line id="line42" x1="127" x2="187" y1="145" y2="145" stroke="#e5e5e5"/>
      <line id="line44" x1="127" x2="187" y1="153" y2="153" stroke="#e5e5e5"/>
      <rect id="finam.NoGrid" x="223.5" y="113" width="81" height="48" rx="2.5" ry="2.5" fill="#262626" stroke="#fff"/>
    </g>
    <circle id="ellipse108" cx="238.5" cy="129" r="11" fill="#add1b2" stroke="#fff"/>
  </g>
  <path id="path110" d="m240.84 124.67c-0.9375-0.4375-1.5313-0.5781-2.4063-0.5781-2.625 0-4.625 2.0781-4.625 4.7968v1.125c0 2.5782 2.1094 4.4688 5 4.4688 1.2188 0 2.375-0.2969 3.125-0.8438 0.5781-0.4062 0.9063-0.8593 0.9063-1.25 0-0.4531-0.3907-0.8437-0.8594-0.8437-0.2188 0-0.4219 0.0781-0.6094 0.2656-0.4531 0.4844-0.4531 0.4844-0.6406 0.5781-0.4219 0.2657-1.1094 0.3907-1.875 0.3907-2.0469 0-3.3438-1.0938-3.3438-2.7969v-1.0938c0-1.7812 1.25-3.0937 2.9844-3.0937 0.5781 0 1.1875 0.1562 1.6563 0.4062 0.4843 0.2813 0.6562 0.5 0.75 0.9063 0.0625 0.4062 0.0937 0.5312 0.2343 0.6562 0.1407 0.1407 0.375 0.25 0.5938 0.25 0.2656 0 0.5312-0.1406 0.7031-0.3593 0.1094-0.1563 0.1406-0.3438 0.1406-0.7657v-1.4218c0-0.4375-0.0156-0.5625-0.1093-0.7188-0.1563-0.2656-0.4375-0.4062-0.7344-0.4062s-0.5 0.0937-0.7188 0.4062z"/>
  <text id="text112" transform="translate(0,-36)" x="252.5" y="169.84669" fill="#ffffff" font-family="sans-serif" font-size="14px" textLength="49">NoGrid</text>
  <line id="line114" x1="224.5" x2="303.5" y1="145" y2="145" stroke="#e5e5e5" stroke-width=".5"/>
  <line id="line116" x1="224.5" x2="303.5" y1="153" y2="153" stroke="#e5e5e5" stroke-width=".5"/>
  <g fill="none" stroke="#e5e5e5">
    <path id="finam.Grid-backto-finam.StructuredGrid" d="m129.5 176c-11.568 11.848-24.163 24.747-34.186 35.012" codeLine="18"/>
    <polygon id="polygon124" transform="rotate(13.591 293.18 181.21)" points="139.13 217.77 127.09 210.62 143.33 197"/>
    <path id="finam.Grid-backto-finam.UnstructuredGrid" d="m200.72 171.64c19.973 12.179 42.646 26.004 60.324 36.784" codeLine="23"/>
    <polygon id="polygon144" transform="rotate(-9.6119 -30.381 179.72)" points="193.98 215.4 183.47 197 203.16 204.83"/>
  </g>
  <rect id="finam.StructuredGrid" x="25.5" y="201" width="137" height="48" rx="2.5" ry="2.5" fill="#262626" stroke="#fff" stroke-width=".5" codeLine="1"/>
  <circle id="ellipse12" cx="40.5" cy="217" r="11" fill="#a9dcdf" stroke="#fff"/>
  <path id="path14" d="m42.578 218.81 0.3907 0.9844h-0.3907c-0.4531 0-0.5625 0.0156-0.7187 0.125-0.25 0.1562-0.4063 0.4375-0.4063 0.7344 0 0.2656 0.1407 0.5156 0.3594 0.6718 0.1406 0.125 0.3438 0.1719 0.7656 0.1719h2.3594c0.3594 0 0.5781-0.0312 0.7188-0.125 0.25-0.1406 0.4062-0.4375 0.4062-0.7187 0-0.2813-0.1406-0.5313-0.3594-0.6875-0.1718-0.1407-0.3281-0.1719-0.7968-0.1719l-3.3907-8.2031h-3.6718c-0.4532 0-0.5782 0.0156-0.7344 0.1093-0.25 0.1719-0.4063 0.4532-0.4063 0.7344 0 0.2813 0.1407 0.5313 0.3594 0.7031 0.1719 0.1094 0.3438 0.1407 0.7813 0.1407h1.0781l-2.6406 6.5156c-0.4219 0-0.5782 0.0156-0.7344 0.125-0.25 0.1562-0.4063 0.4375-0.4063 0.7344 0 0.5625 0.375 0.8437 1.125 0.8437h2.2657c0.3593 0 0.5781-0.0312 0.7031-0.125 0.2656-0.1406 0.4062-0.4375 0.4062-0.7187 0-0.2813-0.125-0.5313-0.3437-0.7032-0.1719-0.125-0.3125-0.1562-0.7656-0.1562h-0.3907l0.3907-0.9844zm-0.7031-1.7031h-2.6719l1.3438-3.2656z"/>
  <text id="text16" transform="translate(0,-56)" x="54.5" y="277.84671" fill="#ffffff" font-family="sans-serif" font-size="14px" font-style="italic" textLength="105">StructuredGrid</text>
  <g>
    <g stroke-width=".5">
      <line id="line18" x1="26.5" x2="161.5" y1="233" y2="233" stroke="#e5e5e5"/>
      <line id="line20" x1="26.5" x2="161.5" y1="241" y2="241" stroke="#e5e5e5"/>
      <rect id="finam.UnstructuredGrid" x="201.5" y="201" width="155" height="48" rx="2.5" ry="2.5" fill="#262626" stroke="#fff" codeLine="13"/>
    </g>
    <circle id="ellipse84" cx="216.5" cy="217" r="11" fill="#add1b2" stroke="#fff"/>
  </g>
  <path id="path86" d="m218.84 212.67c-0.9375-0.4375-1.5313-0.5781-2.4063-0.5781-2.625 0-4.625 2.0781-4.625 4.7968v1.125c0 2.5782 2.1094 4.4688 5 4.4688 1.2188 0 2.375-0.2969 3.125-0.8438 0.5781-0.4062 0.9063-0.8593 0.9063-1.25 0-0.4531-0.3907-0.8437-0.8594-0.8437-0.2188 0-0.4219 0.0781-0.6094 0.2656-0.4531 0.4844-0.4531 0.4844-0.6406 0.5781-0.4219 0.2657-1.1094 0.3907-1.875 0.3907-2.0469 0-3.3438-1.0938-3.3438-2.7969v-1.0938c0-1.7812 1.25-3.0937 2.9844-3.0937 0.5781 0 1.1875 0.1562 1.6563 0.4062 0.4843 0.2813 0.6562 0.5 0.75 0.9063 0.0625 0.4062 0.0937 0.5312 0.2343 0.6562 0.1407 0.1407 0.375 0.25 0.5938 0.25 0.2656 0 0.5312-0.1406 0.7031-0.3593 0.1094-0.1563 0.1406-0.3438 0.1406-0.7657v-1.4218c0-0.4375-0.0156-0.5625-0.1093-0.7188-0.1563-0.2656-0.4375-0.4062-0.7344-0.4062s-0.5 0.0937-0.7188 0.4062z"/>
  <text id="text88" transform="translate(0,-56)" x="230.5" y="277.84671" fill="#ffffff" font-family="sans-serif" font-size="14px" textLength="123">UnstructuredGrid</text>
  <line id="line90" x1="202.5" x2="355.5" y1="233" y2="233" stroke="#e5e5e5" stroke-width=".5"/>
  <line id="line92" x1="202.5" x2="355.5" y1="241" y2="241" stroke="#e5e5e5" stroke-width=".5"/>
  <g fill="none" stroke="#e5e5e5">
    <path id="finam.StructuredGrid-backto-finam.RectilinearGrid" d="m93.188 269.02c-0.256 13.555-0.528 28.014-0.748 39.654" codeLine="21"/>
    <polygon id="polygon136" transform="translate(0,-56)" points="93.566 305 100.19 325.13 86.19 324.86"/>
    <path id="finam.UnstructuredGrid-backto-finam.UnstructuredPoints" d="m280.22 269.02c0.383 13.555 0.793 28.014 1.122 39.654" codeLine="24"/>
    <polygon id="polygon148" transform="translate(0,-56)" points="279.65 305 287.21 324.79 273.22 325.19"/>
  </g>
  <rect id="finam.RectilinearGrid" x="22" y="289" width="140" height="48" rx="2.5" ry="2.5" fill="#262626" stroke="#fff" stroke-width=".5" codeLine="9"/>
  <circle id="ellipse60" cx="37" cy="305" r="11" fill="#add1b2" stroke="#fff"/>
  <path id="path62" d="m39.344 300.67c-0.9375-0.4375-1.5313-0.5781-2.4063-0.5781-2.625 0-4.625 2.0781-4.625 4.7968v1.125c0 2.5782 2.1094 4.4688 5 4.4688 1.2188 0 2.375-0.2969 3.125-0.8438 0.5781-0.4062 0.9063-0.8593 0.9063-1.25 0-0.4531-0.3907-0.8437-0.8594-0.8437-0.2188 0-0.4219 0.0781-0.6094 0.2656-0.4531 0.4844-0.4531 0.4844-0.6406 0.5781-0.4219 0.2657-1.1094 0.3907-1.875 0.3907-2.0469 0-3.3438-1.0938-3.3438-2.7969v-1.0938c0-1.7812 1.25-3.0937 2.9844-3.0937 0.5781 0 1.1875 0.1562 1.6563 0.4062 0.4843 0.2813 0.6562 0.5 0.75 0.9063 0.0625 0.4062 0.0937 0.5312 0.2343 0.6562 0.1407 0.1407 0.375 0.25 0.5938 0.25 0.2656 0 0.5312-0.1406 0.7031-0.3593 0.1094-0.1563 0.1406-0.3438 0.1406-0.7657v-1.4218c0-0.4375-0.0156-0.5625-0.1093-0.7188-0.1563-0.2656-0.4375-0.4062-0.7344-0.4062s-0.5 0.0937-0.7188 0.4062z"/>
  <text id="text64" transform="translate(0,-76)" x="51" y="385.84671" fill="#ffffff" font-family="sans-serif" font-size="14px" textLength="108">RectilinearGrid</text>
  <g>
    <g stroke-width=".5">
      <line id="line66" x1="23" x2="161" y1="321" y2="321" stroke="#e5e5e5"/>
      <line id="line68" x1="23" x2="161" y1="329" y2="329" stroke="#e5e5e5"/>
      <rect id="finam.UnstructuredPoints" x="197" y="289" width="170" height="48" rx="2.5" ry="2.5" fill="#262626" stroke="#fff" codeLine="15"/>
    </g>
    <circle id="ellipse96" cx="212" cy="305" r="11" fill="#add1b2" stroke="#fff"/>
  </g>
  <path id="path98" d="m214.34 300.67c-0.9375-0.4375-1.5313-0.5781-2.4063-0.5781-2.625 0-4.625 2.0781-4.625 4.7968v1.125c0 2.5782 2.1094 4.4688 5 4.4688 1.2188 0 2.375-0.2969 3.125-0.8438 0.5781-0.4062 0.9063-0.8593 0.9063-1.25 0-0.4531-0.3907-0.8437-0.8594-0.8437-0.2188 0-0.4219 0.0781-0.6094 0.2656-0.4531 0.4844-0.4531 0.4844-0.6406 0.5781-0.4219 0.2657-1.1094 0.3907-1.875 0.3907-2.0469 0-3.3438-1.0938-3.3438-2.7969v-1.0938c0-1.7812 1.25-3.0937 2.9844-3.0937 0.5781 0 1.1875 0.1562 1.6563 0.4062 0.4843 0.2813 0.6562 0.5 0.75 0.9063 0.0625 0.4062 0.0937 0.5312 0.2343 0.6562 0.1407 0.1407 0.375 0.25 0.5938 0.25 0.2656 0 0.5312-0.1406 0.7031-0.3593 0.1094-0.1563 0.1406-0.3438 0.1406-0.7657v-1.4218c0-0.4375-0.0156-0.5625-0.1093-0.7188-0.1563-0.2656-0.4375-0.4062-0.7344-0.4062s-0.5 0.0937-0.7188 0.4062z"/>
  <text id="text100" transform="translate(0,-76)" x="226" y="385.84671" fill="#ffffff" font-family="sans-serif" font-size="14px" textLength="138">UnstructuredPoints</text>
  <g stroke="#e5e5e5">
    <line id="line102" x1="198" x2="366" y1="321" y2="321" stroke-width=".5"/>
    <line id="line104" x1="198" x2="366" y1="329" y2="329" stroke-width=".5"/>
    <path id="finam.RectilinearGrid-backto-finam.UniformGrid" d="m92 357.02v39.654" fill="none" codeLine="22"/>
    <polygon id="polygon140" transform="translate(0,-76)" points="99 433 85 433 92 413" fill="none"/>
  </g>
  <rect id="finam.UniformGrid" x="32.5" y="377" width="119" height="48" rx="2.5" ry="2.5" fill="#262626" stroke="#fff" stroke-width=".5" codeLine="11"/>
  <circle id="ellipse72" cx="47.5" cy="393" r="11" fill="#add1b2" stroke="#fff"/>
  <path id="path74" d="m49.844 388.67c-0.9375-0.4375-1.5313-0.5781-2.4063-0.5781-2.625 0-4.625 2.0781-4.625 4.7968v1.125c0 2.5782 2.1094 4.4688 5 4.4688 1.2188 0 2.375-0.2969 3.125-0.8438 0.5781-0.4062 0.9063-0.8593 0.9063-1.25 0-0.4531-0.3907-0.8437-0.8594-0.8437-0.2188 0-0.4219 0.0781-0.6094 0.2656-0.4531 0.4844-0.4531 0.4844-0.6406 0.5781-0.4219 0.2657-1.1094 0.3907-1.875 0.3907-2.0469 0-3.3438-1.0938-3.3438-2.7969v-1.0938c0-1.7812 1.25-3.0937 2.9844-3.0937 0.5781 0 1.1875 0.1562 1.6563 0.4062 0.4843 0.2813 0.6562 0.5 0.75 0.9063 0.0625 0.4062 0.0937 0.5312 0.2343 0.6562 0.1407 0.1407 0.375 0.25 0.5938 0.25 0.2656 0 0.5312-0.1406 0.7031-0.3593 0.1094-0.1563 0.1406-0.3438 0.1406-0.7657v-1.4218c0-0.4375-0.0156-0.5625-0.1093-0.7188-0.1563-0.2656-0.4375-0.4062-0.7344-0.4062s-0.5 0.0937-0.7188 0.4062z"/>
  <text id="text76" transform="translate(0,-96)" x="61.5" y="493.84671" fill="#ffffff" font-family="sans-serif" font-size="14px" textLength="87">UniformGrid</text>
  <g stroke="#e5e5e5">
    <line id="line78" x1="33.5" x2="150.5" y1="409" y2="409" stroke-width=".5"/>
    <line id="line80" x1="33.5" x2="150.5" y1="417" y2="417" stroke-width=".5"/>
    <path id="finam.UniformGrid-backto-finam.EsriGrid" d="m92 445.02v39.654" fill="none" codeLine="19"/>
    <polygon id="polygon128" transform="translate(0,-96)" points="85 541 92 521 99 541" fill="none"/>
  </g>
  <rect id="finam.EsriGrid" x="48" y="467" width="88" height="48" rx="2.5" ry="2.5" fill="#262626" stroke="#fff" stroke-width=".5" codeLine="3"/>
  <circle id="ellipse24" cx="63" cy="483" r="11" fill="#add1b2" stroke="#fff"/>
  <path id="path26" d="m65.344 478.67c-0.9375-0.4375-1.5313-0.5781-2.4063-0.5781-2.625 0-4.625 2.0781-4.625 4.7968v1.125c0 2.5782 2.1094 4.4688 5 4.4688 1.2188 0 2.375-0.2969 3.125-0.8438 0.5781-0.4062 0.9063-0.8593 0.9063-1.25 0-0.4531-0.3907-0.8437-0.8594-0.8437-0.2188 0-0.4219 0.0781-0.6094 0.2656-0.4531 0.4844-0.4531 0.4844-0.6406 0.5781-0.4219 0.2657-1.1094 0.3907-1.875 0.3907-2.0469 0-3.3438-1.0938-3.3438-2.7969v-1.0938c0-1.7812 1.25-3.0937 2.9844-3.0937 0.5781 0 1.1875 0.1562 1.6563 0.4062 0.4843 0.2813 0.6562 0.5 0.75 0.9063 0.0625 0.4062 0.0937 0.5312 0.2343 0.6562 0.1407 0.1407 0.375 0.25 0.5938 0.25 0.2656 0 0.5312-0.1406 0.7031-0.3593 0.1094-0.1563 0.1406-0.3438 0.1406-0.7657v-1.4218c0-0.4375-0.0156-0.5625-0.1093-0.7188-0.1563-0.2656-0.4375-0.4062-0.7344-0.4062s-0.5 0.0937-0.7188 0.4062z"/>
  <text id="text28" transform="translate(0,-114)" x="77" y="601.84668" fill="#ffffff" font-family="sans-serif" font-size="14px" textLength="56">EsriGrid</text>
  <line id="line30" x1="49" x2="135" y1="499" y2="499" stroke="#e5e5e5" stroke-width=".5"/>
  <line id="line32" x1="49" x2="135" y1="507" y2="507" stroke="#e5e5e5" stroke-width=".5"/>
</svg>
