<?xml version="1.0" encoding="UTF-8"?>
<svg id="svg153" width="390" height="540" contentStyleType="text/css" preserveAspectRatio="none" version="1.1" viewBox="0 0 390 540" xmlns="http://www.w3.org/2000/svg" zoomAndPan="magnify">
  <rect id="rect3985" x="5.9417" y="6.9026" width="377.12" height="524.2" rx="2.0146" ry="2.0146" fill="#fff" stop-color="#000000" stroke-linejoin="round" stroke-width="3"/>
  <g id="g1371" transform="translate(0,-18)">
    <g id="elem_finam.GridBase">
      <rect id="finam.GridBase" x="161.5" y="41" width="97" height="48" rx="2.5" ry="2.5" fill="#f1f1f1" stroke="#181818" stroke-width=".5" codeLine="7"/>
      <circle id="ellipse48" cx="176.5" cy="57" r="11" fill="#a9dcdf" stroke="#181818"/>
      <path id="path50" d="m178.58 58.812 0.3907 0.9844h-0.3907c-0.4531 0-0.5625 0.0156-0.7187 0.125-0.25 0.1562-0.4063 0.4375-0.4063 0.7344 0 0.2656 0.1407 0.5156 0.3594 0.6718 0.1406 0.125 0.3438 0.1719 0.7656 0.1719h2.3594c0.3594 0 0.5781-0.0312 0.7188-0.125 0.25-0.1406 0.4062-0.4375 0.4062-0.7187 0-0.2813-0.1406-0.5313-0.3594-0.6875-0.1718-0.1407-0.3281-0.1719-0.7968-0.1719l-3.3907-8.2031h-3.6718c-0.4532 0-0.5782 0.0156-0.7344 0.1093-0.25 0.1719-0.4063 0.4532-0.4063 0.7344 0 0.2813 0.1407 0.5313 0.3594 0.7031 0.1719 0.1094 0.3438 0.1407 0.7813 0.1407h1.0781l-2.6406 6.5156c-0.4219 0-0.5782 0.0156-0.7344 0.125-0.25 0.1562-0.4063 0.4375-0.4063 0.7344 0 0.5625 0.375 0.8437 1.125 0.8437h2.2657c0.3593 0 0.5781-0.0312 0.7031-0.125 0.2656-0.1406 0.4062-0.4375 0.4062-0.7187 0-0.2813-0.125-0.5313-0.3437-0.7032-0.1719-0.125-0.3125-0.1562-0.7656-0.1562h-0.3907l0.3907-0.9844zm-0.7031-1.7031h-2.6719l1.3438-3.2656z"/>
      <text id="text52" x="190.5" y="61.846699" fill="#000000" font-family="sans-serif" font-size="14px" font-style="italic" textLength="65">GridBase</text>
      <line id="line54" x1="162.5" x2="257.5" y1="73" y2="73" stroke="#181818" stroke-width=".5"/>
      <line id="line56" x1="162.5" x2="257.5" y1="81" y2="81" stroke="#181818" stroke-width=".5"/>
    </g>
    <g id="link_finam.GridBase_finam.NoGrid" transform="rotate(-18.266 222.15 89.708)" fill="none" stroke="#181818">
      <path id="finam.GridBase-backto-finam.NoGrid" d="m230.93 107.09c7.185 14.102 14.973 29.39 21.185 41.584" codeLine="17"/>
      <polygon id="polygon120" points="237.03 103.64 224.56 110 221.72 89"/>
    </g>
    <g id="g1134" transform="rotate(16.02 197.86 89.459)">
      <g id="link_finam.GridBase_finam.Grid" fill="none" stroke="#181818">
        <path id="finam.GridBase-backto-finam.Grid" d="m189.45 107.09-20.792 41.584" codeLine="20"/>
        <polygon id="polygon132" points="195.82 110.02 183.29 103.76 198.5 89"/>
      </g>
    </g>
    <path id="path4" d="m65.96 24.903h314.6c1.3811 1e-6 2.5008 0.95182 2.5008 2.126v520.18c0 1.1741-1.1196 2.126-2.5008 2.126h-372.11c-1.3811 0-2.5008-0.95183-2.5008-2.126l1e-7 -522.31" fill="none" stroke="#000" stroke-width="1.3835"/>
    <line id="line6" x1="5.9417" x2="65.96" y1="24.903" y2="24.903" stroke="#000" stroke-width="1.3835"/>
    <g id="elem_finam.Grid" transform="translate(0,-18)">
      <rect id="finam.Grid" x="126" y="149" width="62" height="48" rx="2.5" ry="2.5" fill="#f1f1f1" stroke="#181818" stroke-width=".5" codeLine="5"/>
      <circle id="ellipse36" cx="141" cy="165" r="11" fill="#a9dcdf" stroke="#181818"/>
      <path id="path38" d="m143.08 166.81 0.3907 0.9844h-0.3907c-0.4531 0-0.5625 0.0156-0.7187 0.125-0.25 0.1562-0.4063 0.4375-0.4063 0.7344 0 0.2656 0.1407 0.5156 0.3594 0.6718 0.1406 0.125 0.3438 0.1719 0.7656 0.1719h2.3594c0.3594 0 0.5781-0.0312 0.7188-0.125 0.25-0.1406 0.4062-0.4375 0.4062-0.7187 0-0.2813-0.1406-0.5313-0.3594-0.6875-0.1718-0.1407-0.3281-0.1719-0.7968-0.1719l-3.3907-8.2031h-3.6718c-0.4532 0-0.5782 0.0156-0.7344 0.1093-0.25 0.1719-0.4063 0.4532-0.4063 0.7344 0 0.2813 0.1407 0.5313 0.3594 0.7031 0.1719 0.1094 0.3438 0.1407 0.7813 0.1407h1.0781l-2.6406 6.5156c-0.4219 0-0.5782 0.0156-0.7344 0.125-0.25 0.1562-0.4063 0.4375-0.4063 0.7344 0 0.5625 0.375 0.8437 1.125 0.8437h2.2657c0.3593 0 0.5781-0.0312 0.7031-0.125 0.2656-0.1406 0.4062-0.4375 0.4062-0.7187 0-0.2813-0.125-0.5313-0.3437-0.7032-0.1719-0.125-0.3125-0.1562-0.7656-0.1562h-0.3907l0.3907-0.9844zm-0.7031-1.7031h-2.6719l1.3438-3.2656z"/>
      <text id="text40" x="155" y="169.84669" fill="#000000" font-family="sans-serif" font-size="14px" font-style="italic" textLength="30">Grid</text>
      <line id="line42" x1="127" x2="187" y1="181" y2="181" stroke="#181818" stroke-width=".5"/>
      <line id="line44" x1="127" x2="187" y1="189" y2="189" stroke="#181818" stroke-width=".5"/>
    </g>
    <g id="elem_finam.NoGrid" transform="translate(0,-18)">
      <rect id="finam.NoGrid" x="223.5" y="149" width="81" height="48" rx="2.5" ry="2.5" fill="#f1f1f1" stroke="#181818" stroke-width=".5"/>
      <circle id="ellipse108" cx="238.5" cy="165" r="11" fill="#add1b2" stroke="#181818"/>
      <path id="path110" d="m240.84 160.67c-0.9375-0.4375-1.5313-0.5781-2.4063-0.5781-2.625 0-4.625 2.0781-4.625 4.7968v1.125c0 2.5782 2.1094 4.4688 5 4.4688 1.2188 0 2.375-0.2969 3.125-0.8438 0.5781-0.4062 0.9063-0.8593 0.9063-1.25 0-0.4531-0.3907-0.8437-0.8594-0.8437-0.2188 0-0.4219 0.0781-0.6094 0.2656-0.4531 0.4844-0.4531 0.4844-0.6406 0.5781-0.4219 0.2657-1.1094 0.3907-1.875 0.3907-2.0469 0-3.3438-1.0938-3.3438-2.7969v-1.0938c0-1.7812 1.25-3.0937 2.9844-3.0937 0.5781 0 1.1875 0.1562 1.6563 0.4062 0.4843 0.2813 0.6562 0.5 0.75 0.9063 0.0625 0.4062 0.0937 0.5312 0.2343 0.6562 0.1407 0.1407 0.375 0.25 0.5938 0.25 0.2656 0 0.5312-0.1406 0.7031-0.3593 0.1094-0.1563 0.1406-0.3438 0.1406-0.7657v-1.4218c0-0.4375-0.0156-0.5625-0.1093-0.7188-0.1563-0.2656-0.4375-0.4062-0.7344-0.4062s-0.5 0.0937-0.7188 0.4062z"/>
      <text id="text112" x="252.5" y="169.84669" fill="#000000" font-family="sans-serif" font-size="14px" textLength="49">NoGrid</text>
      <line id="line114" x1="224.5" x2="303.5" y1="181" y2="181" stroke="#181818" stroke-width=".5"/>
      <line id="line116" x1="224.5" x2="303.5" y1="189" y2="189" stroke="#181818" stroke-width=".5"/>
    </g>
    <g id="link_finam.Grid_finam.StructuredGrid" transform="rotate(13.591 217.65 190.21)" fill="none" stroke="#181818">
      <path id="finam.Grid-backto-finam.StructuredGrid" d="m132.86 214.61c-8.46 14.235-17.671 29.732-25.001 42.065" codeLine="18"/>
      <polygon id="polygon124" points="143.33 197 139.13 217.77 127.09 210.62"/>
    </g>
    <g id="link_finam.Grid_finam.UnstructuredGrid" transform="rotate(-9.6119 76.664 188.72)" fill="none" stroke="#181818">
      <path id="finam.Grid-backto-finam.UnstructuredGrid" d="m198.82 210.34c17.659 15.343 37.705 32.76 53.335 46.34" codeLine="23"/>
      <polygon id="polygon144" points="203.16 204.83 193.98 215.4 183.47 197"/>
    </g>
    <g id="elem_finam.StructuredGrid" transform="translate(0,-38)">
      <rect id="finam.StructuredGrid" x="25.5" y="257" width="137" height="48" rx="2.5" ry="2.5" fill="#f1f1f1" stroke="#181818" stroke-width=".5" codeLine="1"/>
      <circle id="ellipse12" cx="40.5" cy="273" r="11" fill="#a9dcdf" stroke="#181818"/>
      <path id="path14" d="m42.578 274.81 0.3907 0.9844h-0.3907c-0.4531 0-0.5625 0.0156-0.7187 0.125-0.25 0.1562-0.4063 0.4375-0.4063 0.7344 0 0.2656 0.1407 0.5156 0.3594 0.6718 0.1406 0.125 0.3438 0.1719 0.7656 0.1719h2.3594c0.3594 0 0.5781-0.0312 0.7188-0.125 0.25-0.1406 0.4062-0.4375 0.4062-0.7187 0-0.2813-0.1406-0.5313-0.3594-0.6875-0.1718-0.1407-0.3281-0.1719-0.7968-0.1719l-3.3907-8.2031h-3.6718c-0.4532 0-0.5782 0.0156-0.7344 0.1093-0.25 0.1719-0.4063 0.4532-0.4063 0.7344 0 0.2813 0.1407 0.5313 0.3594 0.7031 0.1719 0.1094 0.3438 0.1407 0.7813 0.1407h1.0781l-2.6406 6.5156c-0.4219 0-0.5782 0.0156-0.7344 0.125-0.25 0.1562-0.4063 0.4375-0.4063 0.7344 0 0.5625 0.375 0.8437 1.125 0.8437h2.2657c0.3593 0 0.5781-0.0312 0.7031-0.125 0.2656-0.1406 0.4062-0.4375 0.4062-0.7187 0-0.2813-0.125-0.5313-0.3437-0.7032-0.1719-0.125-0.3125-0.1562-0.7656-0.1562h-0.3907l0.3907-0.9844zm-0.7031-1.7031h-2.6719l1.3438-3.2656z"/>
      <text id="text16" x="54.5" y="277.84671" fill="#000000" font-family="sans-serif" font-size="14px" font-style="italic" textLength="105">StructuredGrid</text>
      <line id="line18" x1="26.5" x2="161.5" y1="289" y2="289" stroke="#181818" stroke-width=".5"/>
      <line id="line20" x1="26.5" x2="161.5" y1="297" y2="297" stroke="#181818" stroke-width=".5"/>
    </g>
    <g id="elem_finam.UnstructuredGrid" transform="translate(0,-38)">
      <rect id="finam.UnstructuredGrid" x="201.5" y="257" width="155" height="48" rx="2.5" ry="2.5" fill="#f1f1f1" stroke="#181818" stroke-width=".5" codeLine="13"/>
      <circle id="ellipse84" cx="216.5" cy="273" r="11" fill="#add1b2" stroke="#181818"/>
      <path id="path86" d="m218.84 268.67c-0.9375-0.4375-1.5313-0.5781-2.4063-0.5781-2.625 0-4.625 2.0781-4.625 4.7968v1.125c0 2.5782 2.1094 4.4688 5 4.4688 1.2188 0 2.375-0.2969 3.125-0.8438 0.5781-0.4062 0.9063-0.8593 0.9063-1.25 0-0.4531-0.3907-0.8437-0.8594-0.8437-0.2188 0-0.4219 0.0781-0.6094 0.2656-0.4531 0.4844-0.4531 0.4844-0.6406 0.5781-0.4219 0.2657-1.1094 0.3907-1.875 0.3907-2.0469 0-3.3438-1.0938-3.3438-2.7969v-1.0938c0-1.7812 1.25-3.0937 2.9844-3.0937 0.5781 0 1.1875 0.1562 1.6563 0.4062 0.4843 0.2813 0.6562 0.5 0.75 0.9063 0.0625 0.4062 0.0937 0.5312 0.2343 0.6562 0.1407 0.1407 0.375 0.25 0.5938 0.25 0.2656 0 0.5312-0.1406 0.7031-0.3593 0.1094-0.1563 0.1406-0.3438 0.1406-0.7657v-1.4218c0-0.4375-0.0156-0.5625-0.1093-0.7188-0.1563-0.2656-0.4375-0.4062-0.7344-0.4062s-0.5 0.0937-0.7188 0.4062z"/>
      <text id="text88" x="230.5" y="277.84671" fill="#000000" font-family="sans-serif" font-size="14px" textLength="123">UnstructuredGrid</text>
      <line id="line90" x1="202.5" x2="355.5" y1="289" y2="289" stroke="#181818" stroke-width=".5"/>
      <line id="line92" x1="202.5" x2="355.5" y1="297" y2="297" stroke="#181818" stroke-width=".5"/>
    </g>
    <g id="link_finam.StructuredGrid_finam.RectilinearGrid" transform="translate(0,-38)" fill="none" stroke="#181818">
      <path id="finam.StructuredGrid-backto-finam.RectilinearGrid" d="m93.188 325.02c-0.256 13.555-0.528 28.014-0.748 39.654" codeLine="21"/>
      <polygon id="polygon136" points="86.19 324.86 93.566 305 100.19 325.13"/>
    </g>
    <g id="link_finam.UnstructuredGrid_finam.UnstructuredPoints" transform="translate(0,-38)" fill="none" stroke="#181818">
      <path id="finam.UnstructuredGrid-backto-finam.UnstructuredPoints" d="m280.22 325.02c0.383 13.555 0.793 28.014 1.122 39.654" codeLine="24"/>
      <polygon id="polygon148" points="273.22 325.19 279.65 305 287.21 324.79"/>
    </g>
    <g id="elem_finam.RectilinearGrid" transform="translate(0,-58)">
      <rect id="finam.RectilinearGrid" x="22" y="365" width="140" height="48" rx="2.5" ry="2.5" fill="#f1f1f1" stroke="#181818" stroke-width=".5" codeLine="9"/>
      <circle id="ellipse60" cx="37" cy="381" r="11" fill="#add1b2" stroke="#181818"/>
      <path id="path62" d="m39.344 376.67c-0.9375-0.4375-1.5313-0.5781-2.4063-0.5781-2.625 0-4.625 2.0781-4.625 4.7968v1.125c0 2.5782 2.1094 4.4688 5 4.4688 1.2188 0 2.375-0.2969 3.125-0.8438 0.5781-0.4062 0.9063-0.8593 0.9063-1.25 0-0.4531-0.3907-0.8437-0.8594-0.8437-0.2188 0-0.4219 0.0781-0.6094 0.2656-0.4531 0.4844-0.4531 0.4844-0.6406 0.5781-0.4219 0.2657-1.1094 0.3907-1.875 0.3907-2.0469 0-3.3438-1.0938-3.3438-2.7969v-1.0938c0-1.7812 1.25-3.0937 2.9844-3.0937 0.5781 0 1.1875 0.1562 1.6563 0.4062 0.4843 0.2813 0.6562 0.5 0.75 0.9063 0.0625 0.4062 0.0937 0.5312 0.2343 0.6562 0.1407 0.1407 0.375 0.25 0.5938 0.25 0.2656 0 0.5312-0.1406 0.7031-0.3593 0.1094-0.1563 0.1406-0.3438 0.1406-0.7657v-1.4218c0-0.4375-0.0156-0.5625-0.1093-0.7188-0.1563-0.2656-0.4375-0.4062-0.7344-0.4062s-0.5 0.0937-0.7188 0.4062z"/>
      <text id="text64" x="51" y="385.84671" fill="#000000" font-family="sans-serif" font-size="14px" textLength="108">RectilinearGrid</text>
      <line id="line66" x1="23" x2="161" y1="397" y2="397" stroke="#181818" stroke-width=".5"/>
      <line id="line68" x1="23" x2="161" y1="405" y2="405" stroke="#181818" stroke-width=".5"/>
    </g>
    <g id="elem_finam.UnstructuredPoints" transform="translate(0,-58)">
      <rect id="finam.UnstructuredPoints" x="197" y="365" width="170" height="48" rx="2.5" ry="2.5" fill="#f1f1f1" stroke="#181818" stroke-width=".5" codeLine="15"/>
      <circle id="ellipse96" cx="212" cy="381" r="11" fill="#add1b2" stroke="#181818"/>
      <path id="path98" d="m214.34 376.67c-0.9375-0.4375-1.5313-0.5781-2.4063-0.5781-2.625 0-4.625 2.0781-4.625 4.7968v1.125c0 2.5782 2.1094 4.4688 5 4.4688 1.2188 0 2.375-0.2969 3.125-0.8438 0.5781-0.4062 0.9063-0.8593 0.9063-1.25 0-0.4531-0.3907-0.8437-0.8594-0.8437-0.2188 0-0.4219 0.0781-0.6094 0.2656-0.4531 0.4844-0.4531 0.4844-0.6406 0.5781-0.4219 0.2657-1.1094 0.3907-1.875 0.3907-2.0469 0-3.3438-1.0938-3.3438-2.7969v-1.0938c0-1.7812 1.25-3.0937 2.9844-3.0937 0.5781 0 1.1875 0.1562 1.6563 0.4062 0.4843 0.2813 0.6562 0.5 0.75 0.9063 0.0625 0.4062 0.0937 0.5312 0.2343 0.6562 0.1407 0.1407 0.375 0.25 0.5938 0.25 0.2656 0 0.5312-0.1406 0.7031-0.3593 0.1094-0.1563 0.1406-0.3438 0.1406-0.7657v-1.4218c0-0.4375-0.0156-0.5625-0.1093-0.7188-0.1563-0.2656-0.4375-0.4062-0.7344-0.4062s-0.5 0.0937-0.7188 0.4062z"/>
      <text id="text100" x="226" y="385.84671" fill="#000000" font-family="sans-serif" font-size="14px" textLength="138">UnstructuredPoints</text>
      <line id="line102" x1="198" x2="366" y1="397" y2="397" stroke="#181818" stroke-width=".5"/>
      <line id="line104" x1="198" x2="366" y1="405" y2="405" stroke="#181818" stroke-width=".5"/>
    </g>
    <g id="link_finam.RectilinearGrid_finam.UniformGrid" transform="translate(0,-58)" fill="none" stroke="#181818">
      <path id="finam.RectilinearGrid-backto-finam.UniformGrid" d="m92 433.02v39.654" codeLine="22"/>
      <polygon id="polygon140" points="92 413 99 433 85 433"/>
    </g>
    <g id="elem_finam.UniformGrid" transform="translate(0,-78)">
      <rect id="finam.UniformGrid" x="32.5" y="473" width="119" height="48" rx="2.5" ry="2.5" fill="#f1f1f1" stroke="#181818" stroke-width=".5" codeLine="11"/>
      <circle id="ellipse72" cx="47.5" cy="489" r="11" fill="#add1b2" stroke="#181818"/>
      <path id="path74" d="m49.844 484.67c-0.9375-0.4375-1.5313-0.5781-2.4063-0.5781-2.625 0-4.625 2.0781-4.625 4.7968v1.125c0 2.5782 2.1094 4.4688 5 4.4688 1.2188 0 2.375-0.2969 3.125-0.8438 0.5781-0.4062 0.9063-0.8593 0.9063-1.25 0-0.4531-0.3907-0.8437-0.8594-0.8437-0.2188 0-0.4219 0.0781-0.6094 0.2656-0.4531 0.4844-0.4531 0.4844-0.6406 0.5781-0.4219 0.2657-1.1094 0.3907-1.875 0.3907-2.0469 0-3.3438-1.0938-3.3438-2.7969v-1.0938c0-1.7812 1.25-3.0937 2.9844-3.0937 0.5781 0 1.1875 0.1562 1.6563 0.4062 0.4843 0.2813 0.6562 0.5 0.75 0.9063 0.0625 0.4062 0.0937 0.5312 0.2343 0.6562 0.1407 0.1407 0.375 0.25 0.5938 0.25 0.2656 0 0.5312-0.1406 0.7031-0.3593 0.1094-0.1563 0.1406-0.3438 0.1406-0.7657v-1.4218c0-0.4375-0.0156-0.5625-0.1093-0.7188-0.1563-0.2656-0.4375-0.4062-0.7344-0.4062s-0.5 0.0937-0.7188 0.4062z"/>
      <text id="text76" x="61.5" y="493.84671" fill="#000000" font-family="sans-serif" font-size="14px" textLength="87">UniformGrid</text>
      <line id="line78" x1="33.5" x2="150.5" y1="505" y2="505" stroke="#181818" stroke-width=".5"/>
      <line id="line80" x1="33.5" x2="150.5" y1="513" y2="513" stroke="#181818" stroke-width=".5"/>
    </g>
    <g id="link_finam.UniformGrid_finam.EsriGrid" transform="translate(0,-78)" fill="none" stroke="#181818">
      <path id="finam.UniformGrid-backto-finam.EsriGrid" d="m92 541.02v39.654" codeLine="19"/>
      <polygon id="polygon128" points="99 541 85 541 92 521"/>
    </g>
    <g id="elem_finam.EsriGrid" transform="translate(0,-96)">
      <rect id="finam.EsriGrid" x="48" y="581" width="88" height="48" rx="2.5" ry="2.5" fill="#f1f1f1" stroke="#181818" stroke-width=".5" codeLine="3"/>
      <circle id="ellipse24" cx="63" cy="597" r="11" fill="#add1b2" stroke="#181818"/>
      <path id="path26" d="m65.344 592.67c-0.9375-0.4375-1.5313-0.5781-2.4063-0.5781-2.625 0-4.625 2.0781-4.625 4.7968v1.125c0 2.5782 2.1094 4.4688 5 4.4688 1.2188 0 2.375-0.2969 3.125-0.8438 0.5781-0.4062 0.9063-0.8593 0.9063-1.25 0-0.4531-0.3907-0.8437-0.8594-0.8437-0.2188 0-0.4219 0.0781-0.6094 0.2656-0.4531 0.4844-0.4531 0.4844-0.6406 0.5781-0.4219 0.2657-1.1094 0.3907-1.875 0.3907-2.0469 0-3.3438-1.0938-3.3438-2.7969v-1.0938c0-1.7812 1.25-3.0937 2.9844-3.0937 0.5781 0 1.1875 0.1562 1.6563 0.4062 0.4843 0.2813 0.6562 0.5 0.75 0.9063 0.0625 0.4062 0.0937 0.5312 0.2343 0.6562 0.1407 0.1407 0.375 0.25 0.5938 0.25 0.2656 0 0.5312-0.1406 0.7031-0.3593 0.1094-0.1563 0.1406-0.3438 0.1406-0.7657v-1.4218c0-0.4375-0.0156-0.5625-0.1093-0.7188-0.1563-0.2656-0.4375-0.4062-0.7344-0.4062s-0.5 0.0937-0.7188 0.4062z"/>
      <text id="text28" x="77" y="601.84668" fill="#000000" font-family="sans-serif" font-size="14px" textLength="56">EsriGrid</text>
      <line id="line30" x1="49" x2="135" y1="613" y2="613" stroke="#181818" stroke-width=".5"/>
      <line id="line32" x1="49" x2="135" y1="621" y2="621" stroke="#181818" stroke-width=".5"/>
    </g>
  </g>
</svg>
