<?xml version="1.0" encoding="UTF-8"?>
<svg id="svg8" width="91" height="25" version="1.1" viewBox="0 0 91 25" xmlns="http://www.w3.org/2000/svg">
  <path id="rect1095-4-9-3-1-6-2-58-1-5-4-0-1" d="m6.2317 24 1.7214-5h11.047v5z" fill="#ffa600" stop-color="#000000" style="font-variation-settings:normal"/>
  <path id="rect1095-4-9-8-7-5-7-65-5-7-8-8-1-6-9" d="m10.375 12 1.7344-5h12.391v5z" fill="#ffa600" stop-color="#000000" style="font-variation-settings:normal"/>
  <g fill="#005aa0">
    <path id="rect1095-8-5-97-1-3-4-5-0-6-5" d="m 6.1719,1 1,2.5352 L 5.7637,7 H 3 V 24 H 5.0391 L 13,1 Z" stop-color="#000000" style="font-variation-settings:normal"/>
    <path id="rect1095-4-9-3-1-6-2-58-1-5-4-39" d="m23.768 1-1.7214 5h-11.047v-5z" stop-color="#000000" style="font-variation-settings:normal"/>
    <path id="rect1095-4-9-8-7-5-7-65-5-7-8-8-1-1" d="m19.625 13-1.7344 5h-12.391v-5z" stop-color="#000000" style="font-variation-settings:normal"/>
    <path id="rect1095-4-9-3-1-6-2-5-5-97-3-3-3-5" d="M 5,1 6,3.5351 5,6 H 2 L 1,1 Z" stop-color="#000000" style="font-variation-settings:normal"/>
  </g>
  <path id="rect1095-8-5-97-1-3-7-6-1-0-1" d="m24.961 1-7.9609 23h6.8281l-1-2.5352 1.4082-3.4648h2.7637v-17z" fill="#ffa600" stop-color="#000000" style="font-variation-settings:normal"/>
  <path id="rect1095-4-9-3-1-6-2-5-5-9-7-6-2-7-8" d="m25 24-1-2.5351 1-2.4649h3l1 5z" fill="#ffa600" stop-color="#000000" style="font-variation-settings:normal"/>
  <text id="text987" x="29.55798" y="15" fill="#005aa0" font-family="Arial" font-size="19.558px" font-weight="bold" letter-spacing="0px" stop-color="#000000" stroke-linecap="round" stroke-linejoin="bevel" stroke-width="0" word-spacing="0px" style="font-variant-caps:normal;font-variant-east-asian:normal;font-variant-ligatures:normal;font-variant-numeric:normal;font-variation-settings:normal;line-height:1.25" xml:space="preserve"><tspan id="tspan985" x="29.55798" y="15" fill="#005aa0" font-family="Arial" font-size="19.558px" font-weight="bold" stop-color="#000000" stroke-linecap="round" stroke-linejoin="bevel" stroke-width="0" style="font-variant-caps:normal;font-variant-east-asian:normal;font-variant-ligatures:normal;font-variant-numeric:normal;font-variation-settings:normal">FINAM</tspan></text>
  <text id="text991" transform="scale(1.0214 .97905)" x="29.898653" y="24.518534" fill="#ffa600" font-family="Arial" font-size="7.1692px" letter-spacing="0px" stop-color="#000000" stroke-linecap="round" stroke-linejoin="bevel" stroke-width="0" word-spacing="0px" style="font-variation-settings:normal;line-height:1.25" xml:space="preserve"><tspan id="tspan989" x="29.898653" y="24.518534" fill="#ffa600" font-family="Arial" font-size="7.1692px" font-weight="bold" stop-color="#000000" stroke-linecap="round" stroke-linejoin="bevel" stroke-width="0">IS NOT A MODEL</tspan></text>
</svg>
