<?xml version="1.0" encoding="UTF-8"?>
<svg id="svg8" width="512" height="128" version="1.1" viewBox="0 0 512 128" xmlns="http://www.w3.org/2000/svg">
  <defs id="defs25">
    <marker id="marker10354" overflow="visible" markerHeight="5.5999999" markerWidth="7.6999998" orient="auto-start-reverse" preserveAspectRatio="xMidYMid" viewBox="0 0 7.7 5.6">
      <path id="path10352" transform="scale(.7)" d="m-2-4 11 4-11 4c2-2.33 2-5.66 0-8z" fill="context-stroke" fill-rule="evenodd"/>
    </marker>
    <marker id="marker10007" overflow="visible" markerHeight="5.5999999" markerWidth="7.6999998" orient="auto-start-reverse" preserveAspectRatio="xMidYMid" viewBox="0 0 7.7 5.6">
      <path id="path10005" transform="scale(.7)" d="m-2-4 11 4-11 4c2-2.33 2-5.66 0-8z" fill="context-stroke" fill-rule="evenodd"/>
    </marker>
    <marker id="Arrow2" overflow="visible" markerHeight="5.5999999" markerWidth="7.6999998" orient="auto-start-reverse" preserveAspectRatio="xMidYMid" viewBox="0 0 7.7 5.6">
      <path id="arrow2L" transform="scale(.7)" d="m-2-4 11 4-11 4c2-2.33 2-5.66 0-8z" fill="context-stroke" fill-rule="evenodd"/>
    </marker>
  </defs>
  <g fill="#fff">
    <circle id="path1305-2-2-3-31-2-6" cx="59.255" cy="50.5" r="4" stop-color="#000000"/>
    <circle id="path1305-2-2-3-31-2-9" cx="59.255" cy="80.5" r="4" stop-color="#000000"/>
    <circle id="path1305-2-2-3-31-2-7" cx="179.46" cy="50.5" r="4" stop-color="#000000"/>
    <circle id="path1305-2-2-3-31-2-5" cx="299.38" cy="50.5" r="4" stop-color="#000000"/>
    <circle id="path1305-2-2-3-31-2-94" cx="418.01" cy="80.5" r="4" stop-color="#000000"/>
    <circle id="path1305-2-2-3-31-1" cx="109.29" cy="20.5" r="4" stop-color="#000000"/>
    <circle id="path1305-2-2-3-31-2" cx="59.255" cy="20.5" r="4" stop-color="#000000"/>
    <circle id="path1305-2-2-3-31" cx="159.03" cy="20.5" r="4" stop-color="#000000"/>
  </g>
  <g fill="none" stroke="#fff">
    <path id="path1274-4" d="m208.86 20.5h50.037" stroke-dasharray="4, 4"/>
    <path id="path1274-1" d="m60.296 80.5h357.72"/>
    <path id="path1274" d="m60.296 20.5h148.57"/>
    <path id="path852" d="m52.557 105.1h435.89" marker-end="url(#marker10354)" stroke-width="1.9521"/>
  </g>
  <g fill="#ffffff" font-family="Arial" font-size="16px" letter-spacing="0px" word-spacing="0px">
    <text id="text1164" x="238.04768" y="123.16895" style="line-height:1.25" xml:space="preserve"><tspan id="tspan1162" x="238.04768" y="123.16895" fill="#ffffff">Time</tspan></text>
    <text id="text1164-0" transform="rotate(-90)" x="-98.661514" y="17.543695" style="line-height:1.25" xml:space="preserve"><tspan id="tspan1162-0" x="-98.661514" y="17.543695" fill="#ffffff">Components</tspan></text>
    <text id="text1164-0-2" x="32.494274" y="26.226562" style="line-height:1.25" xml:space="preserve"><tspan id="tspan1162-0-2" x="32.494274" y="26.226562" fill="#ffffff">A</tspan></text>
    <text id="text1164-0-2-3" x="32.334118" y="56.226562" style="line-height:1.25" xml:space="preserve"><tspan id="tspan1162-0-2-3" x="32.334118" y="56.226562" fill="#ffffff">B</tspan></text>
    <text id="text1164-0-2-0" x="31.970837" y="86.226562" style="line-height:1.25" xml:space="preserve"><tspan id="tspan1162-0-2-7" x="31.970837" y="86.226562" fill="#ffffff">C</tspan></text>
  </g>
  <path id="path1274-0" d="m60.296 50.5h239.08" fill="none" stroke="#fff"/>
  <ellipse id="path1305-2-2-3" cx="208.82" cy="20.5" rx="4" ry="4" fill="#fff" stop-color="#000000"/>
  <g stroke="#fff">
    <path id="path1274-4-1" d="m258.9 20.5h50.037" fill="none" stroke-dasharray="2, 4"/>
    <circle id="path1305-2-2-3-3" cx="258.6" cy="20.5" r="3.5" fill="#0b0b0b" stop-color="#000000" stroke-linecap="round" stroke-linejoin="round"/>
    <circle id="path1305-2-2-3-3-0" cx="308.64" cy="20.5" r="3.5" fill="#0b0b0b" stop-color="#000000" stroke-linecap="round" stroke-linejoin="round"/>
    <g stroke-width=".5">
      <path id="path1692" d="m207.12 39.878v-11.91" fill="none" marker-end="url(#marker10007)"/>
      <path id="path1692-2" d="m209.72 70.839v-42.784" fill="#fff" marker-end="url(#Arrow2)"/>
      <path id="path2404" d="m182.98 47.965c4.472-6.7821 18.672-2.5106 24.14-8.0865 6.6743 8.5396 78.411-0.16471 87.778 8.6787" fill="none"/>
      <path id="path2404-5" d="m64.441 78.754c8.4498-9.2944 138.76 3.1049 145.28-7.9143 8.9773 11.261 192.39-2.2211 203.22 8.5065" fill="none"/>
    </g>
  </g>
</svg>
